<?xml version="1.0" encoding="utf-8"?>
<!-- Generator: Adobe Illustrator 22.0.0, SVG Export Plug-In . SVG Version: 6.00 Build 0)  -->
<svg version="1.1" id="Layer_1" xmlns="http://www.w3.org/2000/svg" xmlns:xlink="http://www.w3.org/1999/xlink" x="0px" y="0px"
	 viewBox="0 0 561.2 616.5" style="enable-background:new 0 0 561.2 616.5;" xml:space="preserve">
<path d="M514.5,182.1c0,3.6-2.5,6.5-5.7,6.5c-3.1,0-5.6-2.9-5.6-6.5c0-3.6,2.5-6.5,5.6-6.5C511.9,175.6,514.5,178.5,514.5,182.1z
	 M508.8,159.6c2.8,0,5.1-2.6,5.1-5.9c0-3.3-2.3-5.9-5.1-5.9c-2.8,0-5.1,2.6-5.1,5.9C503.7,156.9,506,159.6,508.8,159.6z
	 M508.8,130.5c2.5,0,4.6-2.4,4.6-5.3c0-2.9-2-5.3-4.6-5.3c-2.5,0-4.6,2.4-4.6,5.3C504.3,128.2,506.3,130.5,508.8,130.5z
	 M508.8,101.5c2.2,0,4-2.1,4-4.7c0-2.6-1.8-4.7-4-4.7c-2.2,0-4,2.1-4,4.7C504.8,99.4,506.6,101.5,508.8,101.5z M489.1,203.4
	c-3.4,0-6.2,3.2-6.2,7.2c0,4,2.8,7.2,6.2,7.2c3.4,0,6.2-3.2,6.2-7.2C495.2,206.6,492.5,203.4,489.1,203.4z M489.1,188.6
	c3.1,0,5.7-2.9,5.7-6.5c0-3.6-2.5-6.5-5.7-6.5c-3.1,0-5.6,2.9-5.6,6.5C483.4,185.7,485.9,188.6,489.1,188.6z M489.1,159.6
	c2.8,0,5.1-2.6,5.1-5.9c0-3.3-2.3-5.9-5.1-5.9c-2.8,0-5.1,2.6-5.1,5.9C483.9,156.9,486.2,159.6,489.1,159.6z M489.1,130.5
	c2.5,0,4.6-2.4,4.6-5.3c0-2.9-2-5.3-4.6-5.3c-2.5,0-4.6,2.4-4.6,5.3C484.5,128.2,486.5,130.5,489.1,130.5z M489.1,101.5
	c2.2,0,4-2.1,4-4.7c0-2.6-1.8-4.7-4-4.7c-2.2,0-4,2.1-4,4.7C485,99.4,486.8,101.5,489.1,101.5z M469.3,203.4c-3.4,0-6.2,3.2-6.2,7.2
	c0,4,2.8,7.2,6.2,7.2c3.4,0,6.2-3.2,6.2-7.2C475.5,206.6,472.7,203.4,469.3,203.4z M469.3,188.6c3.1,0,5.7-2.9,5.7-6.5
	c0-3.6-2.5-6.5-5.7-6.5c-3.1,0-5.6,2.9-5.6,6.5C463.6,185.7,466.2,188.6,469.3,188.6z M469.3,159.6c2.8,0,5.1-2.6,5.1-5.9
	c0-3.3-2.3-5.9-5.1-5.9c-2.8,0-5.1,2.6-5.1,5.9C464.2,156.9,466.5,159.6,469.3,159.6z M469.3,130.5c2.5,0,4.6-2.4,4.6-5.3
	c0-2.9-2-5.3-4.6-5.3c-2.5,0-4.6,2.4-4.6,5.3C464.7,128.2,466.8,130.5,469.3,130.5z M469.3,101.5c2.2,0,4-2.1,4-4.7
	c0-2.6-1.8-4.7-4-4.7c-2.2,0-4,2.1-4,4.7C465.3,99.4,467.1,101.5,469.3,101.5z M449.5,231.2c-3.7,0-6.7,3.5-6.7,7.8
	c0,4.3,3,7.8,6.7,7.8c3.7,0,6.7-3.5,6.7-7.8C456.2,234.6,453.2,231.2,449.5,231.2z M449.5,217.7c3.4,0,6.2-3.2,6.2-7.2
	c0-3.9-2.8-7.2-6.2-7.2c-3.4,0-6.2,3.2-6.2,7.2C443.3,214.5,446.1,217.7,449.5,217.7z M449.5,188.6c3.1,0,5.7-2.9,5.7-6.5
	c0-3.6-2.5-6.5-5.7-6.5c-3.1,0-5.6,2.9-5.6,6.5C443.9,185.7,446.4,188.6,449.5,188.6z M449.5,159.6c2.8,0,5.1-2.6,5.1-5.9
	c0-3.3-2.3-5.9-5.1-5.9c-2.8,0-5.1,2.6-5.1,5.9C444.4,156.9,446.7,159.6,449.5,159.6z M449.5,130.5c2.5,0,4.6-2.4,4.6-5.3
	c0-2.9-2-5.3-4.6-5.3c-2.5,0-4.6,2.4-4.6,5.3C444.9,128.2,447,130.5,449.5,130.5z M449.5,101.5c2.2,0,4-2.1,4-4.7
	c0-2.6-1.8-4.7-4-4.7c-2.2,0-4,2.1-4,4.7C445.5,99.4,447.3,101.5,449.5,101.5z M429.7,231.2c-3.7,0-6.7,3.5-6.7,7.8
	c0,4.3,3,7.8,6.7,7.8c3.7,0,6.7-3.5,6.7-7.8C436.5,234.6,433.5,231.2,429.7,231.2z M429.7,217.7c3.4,0,6.2-3.2,6.2-7.2
	c0-3.9-2.8-7.2-6.2-7.2c-3.4,0-6.2,3.2-6.2,7.2C423.6,214.5,426.3,217.7,429.7,217.7z M429.7,188.6c3.1,0,5.7-2.9,5.7-6.5
	c0-3.6-2.5-6.5-5.7-6.5c-3.1,0-5.6,2.9-5.6,6.5C424.1,185.7,426.6,188.6,429.7,188.6z M429.7,159.6c2.8,0,5.1-2.6,5.1-5.9
	c0-3.3-2.3-5.9-5.1-5.9c-2.8,0-5.1,2.6-5.1,5.9C424.6,156.9,426.9,159.6,429.7,159.6z M429.7,130.5c2.5,0,4.6-2.4,4.6-5.3
	c0-2.9-2-5.3-4.6-5.3c-2.5,0-4.6,2.4-4.6,5.3C425.2,128.2,427.2,130.5,429.7,130.5z M429.7,101.5c2.2,0,4-2.1,4-4.7s-1.8-4.7-4-4.7
	c-2.2,0-4,2.1-4,4.7S427.5,101.5,429.7,101.5z M410,120c-2.5,0-4.6,2.4-4.6,5.3c0,2.9,2,5.3,4.6,5.3c2.5,0,4.6-2.4,4.6-5.3
	C414.6,122.3,412.5,120,410,120z M410,101.5c2.2,0,4-2.1,4-4.7c0-2.6-1.8-4.7-4-4.7c-2.2,0-4,2.1-4,4.7
	C405.9,99.4,407.8,101.5,410,101.5z M390.2,92.2c-2.2,0-4,2.1-4,4.7c0,2.6,1.8,4.7,4,4.7c2.2,0,4-2.1,4-4.7
	C394.2,94.2,392.4,92.2,390.2,92.2z M133.2,217.7c3.4,0,6.2-3.2,6.2-7.2c0-3.9-2.8-7.2-6.2-7.2c-3.4,0-6.2,3.2-6.2,7.2
	C127,214.5,129.8,217.7,133.2,217.7z M133.2,188.6c3.1,0,5.6-2.9,5.6-6.5c0-3.6-2.5-6.5-5.6-6.5c-3.1,0-5.6,2.9-5.6,6.5
	C127.6,185.7,130.1,188.6,133.2,188.6z M133.2,159.6c2.8,0,5.1-2.6,5.1-5.9c0-3.3-2.3-5.9-5.1-5.9c-2.8,0-5.1,2.6-5.1,5.9
	C128.1,156.9,130.4,159.6,133.2,159.6z M133.2,130.5c2.5,0,4.6-2.4,4.6-5.3c0-2.9-2-5.3-4.6-5.3c-2.5,0-4.6,2.4-4.6,5.3
	C128.6,128.2,130.7,130.5,133.2,130.5z M133.2,101.5c2.2,0,4-2.1,4-4.7c0-2.6-1.8-4.7-4-4.7c-2.2,0-4,2.1-4,4.7
	C129.2,99.4,131,101.5,133.2,101.5z M113.5,304.8c4.3,0,7.8-4,7.8-9c0-5-3.5-9-7.8-9c-4.3,0-7.8,4-7.8,9
	C105.7,300.7,109.1,304.8,113.5,304.8z M113.5,275.7c4,0,7.3-3.8,7.3-8.4s-3.3-8.4-7.3-8.4c-4,0-7.3,3.8-7.3,8.4
	S109.4,275.7,113.5,275.7z M113.5,246.7c3.7,0,6.7-3.5,6.7-7.8c0-4.3-3-7.8-6.7-7.8c-3.7,0-6.7,3.5-6.7,7.8
	C106.7,243.2,109.7,246.7,113.5,246.7z M113.5,217.7c3.4,0,6.2-3.2,6.2-7.2c0-3.9-2.8-7.2-6.2-7.2c-3.4,0-6.2,3.2-6.2,7.2
	C107.3,214.5,110,217.7,113.5,217.7z M113.5,188.6c3.1,0,5.6-2.9,5.6-6.5c0-3.6-2.5-6.5-5.6-6.5c-3.1,0-5.6,2.9-5.6,6.5
	C107.8,185.7,110.3,188.6,113.5,188.6z M113.5,159.6c2.8,0,5.1-2.6,5.1-5.9c0-3.3-2.3-5.9-5.1-5.9c-2.8,0-5.1,2.6-5.1,5.9
	C108.3,156.9,110.6,159.6,113.5,159.6z M113.5,130.5c2.5,0,4.6-2.4,4.6-5.3c0-2.9-2-5.3-4.6-5.3c-2.5,0-4.6,2.4-4.6,5.3
	C108.9,128.2,110.9,130.5,113.5,130.5z M113.5,101.5c2.2,0,4-2.1,4-4.7c0-2.6-1.8-4.7-4-4.7c-2.2,0-4,2.1-4,4.7
	C109.4,99.4,111.2,101.5,113.5,101.5z M93.7,391.9c5.2,0,9.4-4.9,9.4-10.9c0-6-4.2-10.9-9.4-10.9c-5.2,0-9.4,4.9-9.4,10.9
	C84.3,387,88.5,391.9,93.7,391.9z M93.7,362.9c4.9,0,8.9-4.6,8.9-10.3s-4-10.3-8.9-10.3c-4.9,0-8.9,4.6-8.9,10.3
	S88.8,362.9,93.7,362.9z M93.7,333.8c4.6,0,8.3-4.3,8.3-9.6c0-5.3-3.7-9.6-8.3-9.6c-4.6,0-8.3,4.3-8.3,9.6
	C85.3,329.5,89.1,333.8,93.7,333.8z M93.7,304.8c4.3,0,7.8-4,7.8-9c0-5-3.5-9-7.8-9c-4.3,0-7.8,4-7.8,9
	C85.9,300.7,89.4,304.8,93.7,304.8z M93.7,275.7c4,0,7.3-3.8,7.3-8.4s-3.3-8.4-7.3-8.4c-4,0-7.3,3.8-7.3,8.4S89.7,275.7,93.7,275.7z
	 M93.7,246.7c3.7,0,6.7-3.5,6.7-7.8c0-4.3-3-7.8-6.7-7.8c-3.7,0-6.7,3.5-6.7,7.8C87,243.2,90,246.7,93.7,246.7z M93.7,217.7
	c3.4,0,6.2-3.2,6.2-7.2c0-3.9-2.8-7.2-6.2-7.2c-3.4,0-6.2,3.2-6.2,7.2C87.5,214.5,90.3,217.7,93.7,217.7z M93.7,188.6
	c3.1,0,5.6-2.9,5.6-6.5c0-3.6-2.5-6.5-5.6-6.5c-3.1,0-5.6,2.9-5.6,6.5C88,185.7,90.6,188.6,93.7,188.6z M93.7,159.6
	c2.8,0,5.1-2.6,5.1-5.9c0-3.3-2.3-5.9-5.1-5.9c-2.8,0-5.1,2.6-5.1,5.9C88.6,156.9,90.9,159.6,93.7,159.6z M93.7,130.5
	c2.5,0,4.6-2.4,4.6-5.3c0-2.9-2-5.3-4.6-5.3c-2.5,0-4.6,2.4-4.6,5.3C89.1,128.2,91.2,130.5,93.7,130.5z M93.7,101.5
	c2.2,0,4-2.1,4-4.7c0-2.6-1.8-4.7-4-4.7c-2.2,0-4,2.1-4,4.7C89.6,99.4,91.5,101.5,93.7,101.5z M73.9,391.9c5.2,0,9.4-4.9,9.4-10.9
	c0-6-4.2-10.9-9.4-10.9c-5.2,0-9.4,4.9-9.4,10.9C64.5,387,68.7,391.9,73.9,391.9z M73.9,362.9c4.9,0,8.9-4.6,8.9-10.3
	s-4-10.3-8.9-10.3s-8.9,4.6-8.9,10.3S69,362.9,73.9,362.9z M73.9,333.8c4.6,0,8.3-4.3,8.3-9.6c0-5.3-3.7-9.6-8.3-9.6
	s-8.3,4.3-8.3,9.6C65.6,329.5,69.3,333.8,73.9,333.8z M73.9,304.8c4.3,0,7.8-4,7.8-9c0-5-3.5-9-7.8-9c-4.3,0-7.8,4-7.8,9
	C66.1,300.7,69.6,304.8,73.9,304.8z M73.9,275.7c4,0,7.3-3.8,7.3-8.4s-3.3-8.4-7.3-8.4c-4,0-7.3,3.8-7.3,8.4S69.9,275.7,73.9,275.7z
	 M73.9,246.7c3.7,0,6.7-3.5,6.7-7.8c0-4.3-3-7.8-6.7-7.8c-3.7,0-6.7,3.5-6.7,7.8C67.2,243.2,70.2,246.7,73.9,246.7z M73.9,217.7
	c3.4,0,6.2-3.2,6.2-7.2c0-3.9-2.8-7.2-6.2-7.2c-3.4,0-6.2,3.2-6.2,7.2C67.7,214.5,70.5,217.7,73.9,217.7z M73.9,188.6
	c3.1,0,5.6-2.9,5.6-6.5c0-3.6-2.5-6.5-5.6-6.5c-3.1,0-5.6,2.9-5.6,6.5C68.3,185.7,70.8,188.6,73.9,188.6z M73.9,159.6
	c2.8,0,5.1-2.6,5.1-5.9c0-3.3-2.3-5.9-5.1-5.9c-2.8,0-5.1,2.6-5.1,5.9C68.8,156.9,71.1,159.6,73.9,159.6z M73.9,130.5
	c2.5,0,4.6-2.4,4.6-5.3c0-2.9-2-5.3-4.6-5.3c-2.5,0-4.6,2.4-4.6,5.3C69.3,128.2,71.4,130.5,73.9,130.5z M73.9,101.5
	c2.2,0,4-2.1,4-4.7c0-2.6-1.8-4.7-4-4.7c-2.2,0-4,2.1-4,4.7C69.9,99.4,71.7,101.5,73.9,101.5z M54.1,391.9c5.2,0,9.4-4.9,9.4-10.9
	c0-6-4.2-10.9-9.4-10.9c-5.2,0-9.4,4.9-9.4,10.9C44.7,387,48.9,391.9,54.1,391.9z M54.1,362.9c4.9,0,8.9-4.6,8.9-10.3
	s-4-10.3-8.9-10.3s-8.9,4.6-8.9,10.3S49.2,362.9,54.1,362.9z M54.1,333.8c4.6,0,8.3-4.3,8.3-9.6c0-5.3-3.7-9.6-8.3-9.6
	s-8.3,4.3-8.3,9.6C45.8,329.5,49.5,333.8,54.1,333.8z M54.1,304.8c4.3,0,7.8-4,7.8-9c0-5-3.5-9-7.8-9c-4.3,0-7.8,4-7.8,9
	C46.3,300.7,49.8,304.8,54.1,304.8z M54.1,275.7c4,0,7.3-3.8,7.3-8.4s-3.3-8.4-7.3-8.4c-4,0-7.3,3.8-7.3,8.4S50.1,275.7,54.1,275.7z
	 M54.1,246.7c3.7,0,6.7-3.5,6.7-7.8c0-4.3-3-7.8-6.7-7.8s-6.7,3.5-6.7,7.8C47.4,243.2,50.4,246.7,54.1,246.7z M54.1,217.7
	c3.4,0,6.2-3.2,6.2-7.2c0-3.9-2.8-7.2-6.2-7.2s-6.2,3.2-6.2,7.2C48,214.5,50.7,217.7,54.1,217.7z M54.1,188.6c3.1,0,5.6-2.9,5.6-6.5
	c0-3.6-2.5-6.5-5.6-6.5s-5.6,2.9-5.6,6.5C48.5,185.7,51,188.6,54.1,188.6z M54.1,159.6c2.8,0,5.1-2.6,5.1-5.9c0-3.3-2.3-5.9-5.1-5.9
	c-2.8,0-5.1,2.6-5.1,5.9C49,156.9,51.3,159.6,54.1,159.6z M54.1,130.5c2.5,0,4.6-2.4,4.6-5.3c0-2.9-2-5.3-4.6-5.3
	c-2.5,0-4.6,2.4-4.6,5.3C49.6,128.2,51.6,130.5,54.1,130.5z M54.1,101.5c2.2,0,4-2.1,4-4.7c0-2.6-1.8-4.7-4-4.7s-4,2.1-4,4.7
	C50.1,99.4,51.9,101.5,54.1,101.5z M508.8,72.3c2.2,0,4-2.1,4-4.7s-1.8-4.7-4-4.7c-2.2,0-4,2.1-4,4.7S506.6,72.3,508.8,72.3z
	 M489.1,72.3c2.2,0,4-2.1,4-4.7c0-2.6-1.8-4.7-4-4.7c-2.2,0-4,2.1-4,4.7C485,70.2,486.8,72.3,489.1,72.3z M469.3,72.3
	c2.2,0,4-2.1,4-4.7s-1.8-4.7-4-4.7c-2.2,0-4,2.1-4,4.7S467.1,72.3,469.3,72.3z M449.5,72.3c2.2,0,4-2.1,4-4.7c0-2.6-1.8-4.7-4-4.7
	c-2.2,0-4,2.1-4,4.7C445.5,70.2,447.3,72.3,449.5,72.3z M429.7,72.3c2.2,0,4-2.1,4-4.7c0-2.6-1.8-4.7-4-4.7c-2.2,0-4,2.1-4,4.7
	C425.7,70.2,427.5,72.3,429.7,72.3z M410,72.3c2.2,0,4-2.1,4-4.7s-1.8-4.7-4-4.7c-2.2,0-4,2.1-4,4.7S407.8,72.3,410,72.3z M390.2,63
	c-2.2,0-4,2.1-4,4.7c0,2.6,1.8,4.7,4,4.7c2.2,0,4-2.1,4-4.7C394.2,65.1,392.4,63,390.2,63z M370.4,63c-2.2,0-4,2.1-4,4.7
	c0,2.6,1.8,4.7,4,4.7c2.2,0,4-2.1,4-4.7C374.5,65.1,372.7,63,370.4,63z M153,72.3c2.2,0,4-2.1,4-4.7s-1.8-4.7-4-4.7
	c-2.2,0-4,2.1-4,4.7S150.8,72.3,153,72.3z M133.2,72.3c2.2,0,4-2.1,4-4.7s-1.8-4.7-4-4.7c-2.2,0-4,2.1-4,4.7S131,72.3,133.2,72.3z
	 M113.5,72.3c2.2,0,4-2.1,4-4.7s-1.8-4.7-4-4.7c-2.2,0-4,2.1-4,4.7S111.2,72.3,113.5,72.3z M93.7,72.3c2.2,0,4-2.1,4-4.7
	s-1.8-4.7-4-4.7c-2.2,0-4,2.1-4,4.7S91.5,72.3,93.7,72.3z M73.9,72.3c2.2,0,4-2.1,4-4.7s-1.8-4.7-4-4.7c-2.2,0-4,2.1-4,4.7
	S71.7,72.3,73.9,72.3z M54.1,72.3c2.2,0,4-2.1,4-4.7s-1.8-4.7-4-4.7s-4,2.1-4,4.7S51.9,72.3,54.1,72.3z M319.3,268.7
	c1.4,1.2,3.5-2.9,3.5-2.9c6.8,7.5,7.3,26,8,27.7c2-4.3-0.3-21.3-2.2-27.1c-1.6-5.2-10.3-10.9-14-12.4c0-0.1,0.1-0.2,0.1-0.3
	c0-0.9-0.6-1.5-1.3-1.5c-0.7,0-1.3,0.7-1.3,1.5c0,0.2,0,0.3,0.1,0.4c-2.4,1.6-4.9,6.9-4.9,6.9l9.4,11.2
	C317.9,269.5,318.2,267.8,319.3,268.7z M263.1,228.8c0.7,0,1.3-0.7,1.3-1.5c0-0.9-0.6-1.5-1.3-1.5s-1.3,0.7-1.3,1.5
	C261.8,228.1,262.4,228.8,263.1,228.8z M259.4,223.5c0.7,0,1.3-0.7,1.3-1.5c0-0.9-0.6-1.5-1.3-1.5s-1.3,0.7-1.3,1.5
	C258.1,222.8,258.7,223.5,259.4,223.5z M268.9,233.2c0.7,0,1.3-0.7,1.3-1.5c0-0.9-0.6-1.5-1.3-1.5s-1.3,0.7-1.3,1.5
	C267.6,232.6,268.2,233.2,268.9,233.2z M265.8,233.2c0-0.9-0.6-1.5-1.3-1.5s-1.3,0.7-1.3,1.5s0.6,1.5,1.3,1.5
	S265.8,234.1,265.8,233.2z M259.8,228.8c0-0.9-0.6-1.5-1.3-1.5s-1.3,0.7-1.3,1.5c0,0.9,0.6,1.5,1.3,1.5S259.8,229.7,259.8,228.8z
	 M253.4,216.7c0,0.9,0.6,1.5,1.3,1.5s1.3-0.7,1.3-1.5c0-0.9-0.6-1.5-1.3-1.5S253.4,215.8,253.4,216.7z M253.4,209.7
	c0.7,0,1.3-0.7,1.3-1.5c0-0.9-0.6-1.5-1.3-1.5c-0.7,0-1.3,0.7-1.3,1.5C252.1,209,252.7,209.7,253.4,209.7z M254.8,223
	c0-0.9-0.6-1.5-1.3-1.5c-0.7,0-1.3,0.7-1.3,1.5c0,0.9,0.6,1.5,1.3,1.5C254.2,224.6,254.8,223.9,254.8,223z M249.3,212.1
	c-0.7,0-1.3,0.7-1.3,1.5c0,0.9,0.6,1.5,1.3,1.5s1.3-0.7,1.3-1.5C250.6,212.7,250,212.1,249.3,212.1z M250.6,200.1
	c-0.7,0-1.3,0.7-1.3,1.5c0,0.9,0.6,1.5,1.3,1.5c0.7,0,1.3-0.7,1.3-1.5C251.9,200.8,251.3,200.1,250.6,200.1z M285.3,254.6
	c0.7,0,1.3-0.7,1.3-1.5c0-0.9-0.6-1.5-1.3-1.5c-0.7,0-1.3,0.7-1.3,1.5C284,253.9,284.6,254.6,285.3,254.6z M280.3,250.5
	c0.7,0,1.3-0.7,1.3-1.5c0-0.9-0.6-1.5-1.3-1.5c-0.7,0-1.3,0.7-1.3,1.5C279,249.8,279.6,250.5,280.3,250.5z M282.8,246
	c0.7,0,1.3-0.7,1.3-1.5c0-0.9-0.6-1.5-1.3-1.5c-0.7,0-1.3,0.7-1.3,1.5C281.4,245.3,282,246,282.8,246z M287.7,256.9
	c0,0.9,0.6,1.5,1.3,1.5c0.7,0,1.3-0.7,1.3-1.5c0-0.9-0.6-1.5-1.3-1.5C288.3,255.4,287.7,256.1,287.7,256.9z M285.4,258.5
	c0-0.9-0.6-1.5-1.3-1.5s-1.3,0.7-1.3,1.5c0,0.9,0.6,1.5,1.3,1.5S285.4,259.3,285.4,258.5z M289,262.5c0-0.9-0.6-1.5-1.3-1.5
	c-0.7,0-1.3,0.7-1.3,1.5c0,0.9,0.6,1.5,1.3,1.5C288.5,264.1,289,263.4,289,262.5z M280.8,254c0-0.9-0.6-1.5-1.3-1.5
	s-1.3,0.7-1.3,1.5c0,0.9,0.6,1.5,1.3,1.5S280.8,254.9,280.8,254z M275,241.1c0.7,0,1.3-0.7,1.3-1.5c0-0.9-0.6-1.5-1.3-1.5
	c-0.7,0-1.3,0.7-1.3,1.5C273.6,240.5,274.2,241.1,275,241.1z M279,244.2c0-0.9-0.6-1.5-1.3-1.5c-0.7,0-1.3,0.7-1.3,1.5
	c0,0.9,0.6,1.5,1.3,1.5C278.4,245.7,279,245,279,244.2z M275.5,235.9c0.7,0,1.3-0.7,1.3-1.5c0-0.9-0.6-1.5-1.3-1.5s-1.3,0.7-1.3,1.5
	C274.2,235.2,274.8,235.9,275.5,235.9z M274.4,249.8c0.7,0,1.3-0.7,1.3-1.5c0-0.9-0.6-1.5-1.3-1.5s-1.3,0.7-1.3,1.5
	C273.1,249.1,273.7,249.8,274.4,249.8z M268.6,237.1c0,0.9,0.6,1.5,1.3,1.5s1.3-0.7,1.3-1.5c0-0.9-0.6-1.5-1.3-1.5
	S268.6,236.2,268.6,237.1z M297,254c0.7,0,1.3-0.7,1.3-1.5c0-0.9-0.6-1.5-1.3-1.5c-0.7,0-1.3,0.7-1.3,1.5
	C295.6,253.4,296.2,254,297,254z M292.3,249.8c0.7,0,1.3-0.7,1.3-1.5c0-0.9-0.6-1.5-1.3-1.5c-0.7,0-1.3,0.7-1.3,1.5
	C291,249.1,291.6,249.8,292.3,249.8z M293.6,245c0.7,0,1.3-0.7,1.3-1.5c0-0.9-0.6-1.5-1.3-1.5c-0.7,0-1.3,0.7-1.3,1.5
	C292.3,244.3,292.9,245,293.6,245z M302.8,258.5c0.7,0,1.3-0.7,1.3-1.5c0-0.9-0.6-1.5-1.3-1.5c-0.7,0-1.3,0.7-1.3,1.5
	C301.5,257.8,302.1,258.5,302.8,258.5z M297,260c0.7,0,1.3-0.7,1.3-1.5c0-0.9-0.6-1.5-1.3-1.5c-0.7,0-1.3,0.7-1.3,1.5
	C295.6,259.3,296.2,260,297,260z M293,252.8c-0.7,0-1.3,0.7-1.3,1.5c0,0.9,0.6,1.5,1.3,1.5c0.7,0,1.3-0.7,1.3-1.5
	C294.4,253.5,293.8,252.8,293,252.8z M287.3,249.8c0.7,0,1.3-0.7,1.3-1.5c0-0.9-0.6-1.5-1.3-1.5c-0.7,0-1.3,0.7-1.3,1.5
	C286,249.1,286.6,249.8,287.3,249.8z M307.5,250.8c0.7,0,1.3-0.7,1.3-1.5c0-0.9-0.6-1.5-1.3-1.5c-0.7,0-1.3,0.7-1.3,1.5
	C306.1,250.1,306.7,250.8,307.5,250.8z M313.2,249.8c0.7,0,1.3-0.7,1.3-1.5c0-0.9-0.6-1.5-1.3-1.5s-1.3,0.7-1.3,1.5
	C311.9,249.1,312.4,249.8,313.2,249.8z M302.8,246.5c0.7,0,1.3-0.7,1.3-1.5c0-0.9-0.6-1.5-1.3-1.5c-0.7,0-1.3,0.7-1.3,1.5
	C301.5,245.8,302.1,246.5,302.8,246.5z M307.5,256.7c0.7,0,1.3-0.7,1.3-1.5s-0.6-1.5-1.3-1.5c-0.7,0-1.3,0.7-1.3,1.5
	S306.7,256.7,307.5,256.7z M302.8,252.3c0.7,0,1.3-0.7,1.3-1.5c0-0.9-0.6-1.5-1.3-1.5c-0.7,0-1.3,0.7-1.3,1.5
	C301.5,251.6,302.1,252.3,302.8,252.3z M297.8,246.5c0.7,0,1.3-0.7,1.3-1.5c0-0.9-0.6-1.5-1.3-1.5c-0.7,0-1.3,0.7-1.3,1.5
	C296.5,245.8,297.1,246.5,297.8,246.5z M269.9,251.9c-0.7,0-1.3,0.7-1.3,1.5c0,0.9,0.6,1.5,1.3,1.5s1.3-0.7,1.3-1.5
	C271.3,252.6,270.7,251.9,269.9,251.9z M265.3,247.7c-0.7,0-1.3,0.7-1.3,1.5c0,0.9,0.6,1.5,1.3,1.5c0.7,0,1.3-0.7,1.3-1.5
	C266.6,248.4,266,247.7,265.3,247.7z M267.6,241.9c-0.7,0-1.3,0.7-1.3,1.5c0,0.9,0.6,1.5,1.3,1.5s1.3-0.7,1.3-1.5
	C268.9,242.6,268.3,241.9,267.6,241.9z M272.1,241.9c-0.7,0-1.3,0.7-1.3,1.5c0,0.9,0.6,1.5,1.3,1.5s1.3-0.7,1.3-1.5
	C273.4,242.6,272.8,241.9,272.1,241.9z M269.9,246.7c-0.7,0-1.3,0.7-1.3,1.5c0,0.9,0.6,1.5,1.3,1.5s1.3-0.7,1.3-1.5
	C271.3,247.4,270.7,246.7,269.9,246.7z M275.8,253.5c0-0.9-0.6-1.5-1.3-1.5s-1.3,0.7-1.3,1.5c0,0.9,0.6,1.5,1.3,1.5
	S275.8,254.3,275.8,253.5z M263.9,238.8c0,0.9,0.6,1.5,1.3,1.5c0.7,0,1.3-0.7,1.3-1.5c0-0.9-0.6-1.5-1.3-1.5
	C264.5,237.3,263.9,238,263.9,238.8z M275.8,256.4c-0.7,0-1.3,0.7-1.3,1.5c0,0.9,0.6,1.5,1.3,1.5c0.7,0,1.3-0.7,1.3-1.5
	C277.1,257.1,276.5,256.4,275.8,256.4z M269.9,257.9c-0.7,0-1.3,0.7-1.3,1.5c0,0.9,0.6,1.5,1.3,1.5s1.3-0.7,1.3-1.5
	C271.3,258.6,270.7,257.9,269.9,257.9z M265.3,253.5c-0.7,0-1.3,0.7-1.3,1.5c0,0.9,0.6,1.5,1.3,1.5c0.7,0,1.3-0.7,1.3-1.5
	C266.6,254.2,266,253.5,265.3,253.5z M261.6,241.3c-0.7,0-1.3,0.7-1.3,1.5c0,0.9,0.6,1.5,1.3,1.5s1.3-0.7,1.3-1.5
	C262.9,242,262.3,241.3,261.6,241.3z M258.9,235.9c0,0.9,0.6,1.5,1.3,1.5c0.7,0,1.3-0.7,1.3-1.5c0-0.9-0.6-1.5-1.3-1.5
	C259.5,234.4,258.9,235.1,258.9,235.9z M256.1,231.7c0-0.9-0.6-1.5-1.3-1.5s-1.3,0.7-1.3,1.5c0,0.9,0.6,1.5,1.3,1.5
	S256.1,232.6,256.1,231.7z M260.3,247.7c-0.7,0-1.3,0.7-1.3,1.5c0,0.9,0.6,1.5,1.3,1.5c0.7,0,1.3-0.7,1.3-1.5
	C261.6,248.4,261,247.7,260.3,247.7z M256.1,238.3c-0.7,0-1.3,0.7-1.3,1.5c0,0.9,0.6,1.5,1.3,1.5s1.3-0.7,1.3-1.5
	C257.4,238.9,256.8,238.3,256.1,238.3z M290,277c-0.7,0-1.3,0.7-1.3,1.5c0,0.9,0.6,1.5,1.3,1.5c0.7,0,1.3-0.7,1.3-1.5
	C291.3,277.7,290.7,277,290,277z M291.7,269.9c-0.7,0-1.3,0.7-1.3,1.5s0.6,1.5,1.3,1.5c0.7,0,1.3-0.7,1.3-1.5
	S292.5,269.9,291.7,269.9z M296.2,273.3c-0.7,0-1.3,0.7-1.3,1.5s0.6,1.5,1.3,1.5c0.7,0,1.3-0.7,1.3-1.5S297,273.3,296.2,273.3z
	 M286,266.4c-0.7,0-1.3,0.7-1.3,1.5c0,0.9,0.6,1.5,1.3,1.5c0.7,0,1.3-0.7,1.3-1.5C287.3,267.1,286.7,266.4,286,266.4z M285.3,272.7
	c-0.7,0-1.3,0.7-1.3,1.5c0,0.9,0.6,1.5,1.3,1.5c0.7,0,1.3-0.7,1.3-1.5C286.6,273.4,286,272.7,285.3,272.7z M302.2,267.1
	c0.7,0,1.3-0.7,1.3-1.5c0-0.9-0.6-1.5-1.3-1.5c-0.7,0-1.3,0.7-1.3,1.5C300.9,266.4,301.5,267.1,302.2,267.1z M296.3,268.6
	c-0.1,0.5-0.1,0.9,0,1.2c0.7,1.4,8.2,14.7,8.3,16.4c0.1,1.6-1.3,7.2-1,9c0.3,1.9,2.6,2.5,5.3,3.3c1.2,0.3,2.8,0.3,4.5-0.2
	c0.2,2.2,0.4,5.1,0.5,6.6c0.2,2.7,3.2,4,3.9,4.6s5.1-3.8,5.4-6.4c0.3-2.7,0-6-0.5-6.1s-4.4,5.2-6.6,6.1c-1.6,0.6-1.7-2.9-1.6-5.1
	c1.8-0.7,3.6-1.9,5.1-3.7c3.1-3.9,3.7-10.3,2.9-14.4c-0.8-4-5.6-4-4.9-6.5l-1-1.1c-0.3,0.7-0.8,1.5-1.3,2.3c-0.2,0.4,0.3,3-1.1,3.6
	s-3.3,0-4.9-3s-3.3-2.7-3.2-0.3c0.3,5.6,3.5,7.2,6,10.2c2.5,3.1,3.3,4.2,1.7,4.8c-7.8-0.2-16.2-18.7-15.3-25.4c0,0-0.5,0.7-1,1.6
	c-0.2-0.3-0.6-0.6-1-0.6c-0.7,0-1.3,0.7-1.3,1.5C295,267.9,295.6,268.6,296.3,268.6z M292.6,260c-0.7,0-1.3,0.7-1.3,1.5
	c0,0.9,0.6,1.5,1.3,1.5c0.7,0,1.3-0.7,1.3-1.5C294,260.7,293.4,260,292.6,260z M281.1,265.9c-0.7,0-1.3,0.7-1.3,1.5
	c0,0.9,0.6,1.5,1.3,1.5c0.7,0,1.3-0.7,1.3-1.5C282.4,266.6,281.8,265.9,281.1,265.9z M280.3,259.4c-0.7,0-1.3,0.7-1.3,1.5
	c0,0.9,0.6,1.5,1.3,1.5c0.7,0,1.3-0.7,1.3-1.5C281.6,260.1,281,259.4,280.3,259.4z M280.3,272.7c-0.7,0-1.3,0.7-1.3,1.5
	c0,0.9,0.6,1.5,1.3,1.5c0.7,0,1.3-0.7,1.3-1.5C281.6,273.4,281,272.7,280.3,272.7z M275.8,262.6c-0.7,0-1.3,0.7-1.3,1.5
	c0,0.9,0.6,1.5,1.3,1.5c0.7,0,1.3-0.7,1.3-1.5C277.1,263.3,276.5,262.6,275.8,262.6z M199,264.6c4,3,7,5.4,8,6.4l-3.9,8.4
	c0,0-6-6.5-8.5-8.4c-0.6,0.9-11.6,9.4-12.1,11.8c-0.2,1.1,1,2.1,2.3,2.8c2.5-0.9,6.2-2.6,7.9-4.5c2.5,2.2-6.1,8.7-7.2,9.5
	c0,0,0,0-0.1,0c0,0-0.1,0-0.1,0l0,0c-1.6,1.2-3.5,1.8-5.6,2.2v8.4l-4.8-8c-2.5,0-4.8-0.3-6.3-0.6c-4.5-0.7-8.1-14.3-8.1-14.3
	l-12.4-10.3l-2.4-7.2v-0.6c0,0-2.5-5.1-3.9-9c0-0.1,0-0.1-0.1-0.2c-0.6-1.8-1.1-3.2-0.9-3.8c0.2,0.3,0.3,0.6,0.4,0.8
	c0-4.6,2.8-9.5,2.2-13.3l2.8,13.9c0.9-2.4,1.7-5.3,1.7-5.3s0.8,3.9,2.8,3.2s10.3-7.9,14.4-6.4c0.5,0.3,1.9,1.2,3.9,2.6
	c0.3-2.2,1-4.2,2.1-4.4c0.1,2.3,1.5,6.8,2.6,7.7c0,0,0,0,0,0c1.1,0.9,0.9-3.8,2.9-3.3c0.3,2,1.8,5.8,3.4,7.7l2.8-4
	c0,0,6.7,5.7,7.5,5.7s6.8-1.1,6.8-1.1s-1.8,2.6-1,4.7c0.8,2,9.3,10.6,9.3,10.6L199,264.6z M180.3,263.8c0,2.1,0.1,11.5-0.3,12.2
	c3.3,1,10-4.8,11.1-6.1C191.6,267.8,180.3,263.8,180.3,263.8z M545,596.4H14.4V14.9H545V596.4z M32.4,398.2c0.6-0.1,1.3-0.2,1.9-0.2
	c5.1,0,9.3,4.5,9.9,10.2c0.5-5.8,4.8-10.2,9.9-10.2s9.3,4.5,9.9,10.2c0.5-5.8,4.8-10.2,9.9-10.2c3.8,0,7.1,2.5,8.8,6.2
	c0.8-0.1,1.5-0.2,2.3-0.2c1.7-3.5,5-5.9,8.7-5.9c3.6,0,6.7,2.2,8.5,5.5c0.9,0,1.8,0.1,2.8,0.1c1.4-2.7,3.8-4.7,6.6-5.4
	c0.3,1.1,0.6,2.3,1,3.4c0.3,0.9,0.7,1.7,1.1,2.6c0.1,0.3,0.3,0.6,0.4,0.9c0.6,1.1,1.2,2.2,1.9,3.3c0.7,1,1.4,2,2.2,3
	c0.8,1,1.6,1.9,2.4,2.8c0.9,0.9,1.7,1.7,2.6,2.5c0.9,0.8,1.8,1.5,2.8,2.3c1,0.7,1.9,1.4,2.9,2c1,0.7,2,1.3,3,1.9
	c1,0.6,2,1.1,3.1,1.7c1,0.5,2.1,1,3.1,1.5c1.1,0.4,2.1,0.9,3.2,1.3c1.1,0.4,2.1,0.8,3.2,1.2c1.1,0.4,2.2,0.7,3.3,1.1l2.2,0.7l0.1,0
	c-0.5,2.4-0.8,4.8-0.9,7.3c-0.1,2.3-0.1,4.7,0.3,7.1c0.1,0.5,0.1,1,0.2,1.5c0.6,2.8,1.6,5.6,3.2,8c1.6,2.4,3.6,4.3,5.8,5.8
	c4.4,2.9,9.3,4.2,14.2,5c4.9,0.7,9.7,0.8,14.6,0.6c4.8-0.2,9.6-0.7,14.4-1.5l3.6-0.6l1.8-0.3l0.4-0.1l0.2,0l0.1,0l0.8-0.1
	c2.2-0.1,4.6,0,6.9,0.2c4.6,0.4,9.2,1.2,13.4,2.8c2,0.8,4,1.9,5.2,3.2c0.2,0.2,0.3,0.4,0.5,0.6c0.3,0.4,0.5,0.9,0.6,1.3
	c0.1,0.6,0.1,1.2-0.2,2.1l3.9,1.4c-3.6,4.6-8.2,10.2-14,17c-6.1,7.3-11.9,14.1-15.6,19.3c1,1.7,3.2,4.8,4.7,6.9
	c5.4,7.5,7.8,10.9,6,14.1c-1.9,3.2-6.5,4.9-14,7.4c-3.1,1-8.1,2.6-9.6,3.9c-1.2,10.2-1,26.8-0.1,31.8c0.7,0.2,1.5,0.3,2.4,0.4
	l2.1-30.9l28.8-13.1l-13.1-17l17.7-26.2l0.3-0.2c0.3-0.5,0.5-1,0.9-1.6c3.8-8.4,30.9-37.2,60-66.8c-1.8,0.1-3.6,0.2-5.4,0.3
	l-24.2,26.6c0,0-16.6,17.1-24.6,26.4c0.1-1.2,0-2.5-0.3-3.7c-0.6-2.1-1.7-3.7-2.9-4.9c-2.4-2.3-4.9-3.4-7.4-4.3
	c-2.5-0.8-4.9-1.4-7.4-1.8c-2.5-0.4-4.9-0.6-7.4-0.7c-2.5-0.1-4.9-0.1-7.4,0.1c-0.3,0-0.6,0.1-1,0.1l-0.3,0l-0.2,0l-0.5,0.1
	l-1.7,0.4l-3.5,0.7c-4.7,0.9-9.3,1.6-14,2c-4.7,0.4-9.4,0.5-14,0c-4.6-0.5-9.2-1.6-13.1-4c-0.9-0.5-1.7-1.1-2.4-1.8
	c-0.2-0.2-0.4-0.3-0.5-0.5c-0.8-0.7-1.5-1.6-2.1-2.5c-1.4-2-2.4-4.3-2.9-6.8c-0.8-3.5-0.8-7.1-0.5-10.8c0.1-1.7,0.4-3.4,0.7-5
	l0.2-1.1l-0.9-0.2l-0.2,0l-0.7-0.2l-2.4-0.6c-1.1-0.3-2.2-0.6-3.2-0.9c-1.1-0.3-2.1-0.7-3.2-1.1c-1.1-0.4-2.1-0.8-3.2-1.2
	c-1-0.4-2.1-0.9-3.1-1.3c-1-0.5-2.1-1-3.1-1.5c-1-0.5-2-1.1-3-1.7c-1-0.6-1.9-1.2-2.9-1.9c-0.9-0.7-1.9-1.4-2.8-2.1
	c-0.9-0.7-1.8-1.5-2.6-2.3c-0.8-0.8-1.7-1.7-2.4-2.6c-0.8-0.9-1.5-1.9-2.2-2.9c-0.7-1-1.3-2-1.9-3.1c-0.1-0.2-0.2-0.4-0.3-0.7
	c-0.5-0.9-0.9-1.8-1.3-2.7c-0.3-0.7-0.5-1.4-0.7-2.1c-0.2-0.5-0.3-1-0.5-1.6c-0.3-1.2-0.6-2.5-0.6-3.8c0,1.2,0.2,2.5,0.5,3.7
	c-0.7-2.1-1.1-4.3-1.3-6.5c-3.5-1.6-6.1-5.5-6.1-10.2c0-6,4.2-10.9,9.4-10.9c0.1,0,0.1,0,0.2,0c1.1-3,2.4-5.8,3.7-8.4
	c-1.2,0.7-2.5,1.1-3.9,1.1c-4.9,0-8.9-4.6-8.9-10.3s4-10.3,8.9-10.3c4.9,0,8.9,4.6,8.9,10.3c0,0.2,0,0.4,0,0.7
	c0.9-1.4,1.8-2.6,2.4-3.6c0.3-1,0.7-2,1.2-2.9c-6-2.8-8.7-7.3-9.8-10.9c-0.3-0.8-0.4-1.6-0.6-2.4c-0.7,0.2-1.3,0.3-2,0.3
	c-4.6,0-8.3-4.3-8.3-9.6c0-5.3,3.7-9.6,8.3-9.6c1.9,0,3.7,0.8,5.1,2c2.8-3.8,6.2-9.5,9-14.6c-1.4-1.6-2.2-3.8-2.2-6.3
	c0-5,3.5-9,7.8-9c0.8,0,1.6,0.1,2.3,0.4c0.9-1.4,2-3,3.2-4.7c-1.2-2.4-2.8-5.3-4-6.9c-0.5,0.1-1,0.2-1.5,0.2c-0.8,0-1.5-0.1-2.2-0.4
	c-2.1,1-4.8,2.3-4.8,2.3c-1-0.9-4.3-18.2-4.3-18.2l4,1.2v-0.9c-4.4-9.7-2.8-15.9,0.7-22.2c0.4-2.2,1.5-4.1,3.1-5.2
	c4.3-6.9,9.7-15.5,12.8-31.4c1.4-7.1,3.1-13.5,4.8-19.2c0.1-1.3,0.5-2.6,1.1-3.5c3.1-9.4,6.2-16.3,8.4-20.7
	c-0.9,1.3-2.3,2.1-3.9,2.1c-2.8,0-5.1-2.6-5.1-5.9c0-3.3,2.3-5.9,5.1-5.9c1.1,0,2.1,0.4,2.9,1.1c-8.5-17-10.4-33.4-5.8-48.8
	c0,0,0,0,0,0c-0.7-0.8-1.1-2-1.1-3.2c0-2.6,1.8-4.7,4-4.7c0,0,0,0,0,0c3.9-8.6,9.7-16.1,16.1-22.5c-0.3-0.6-0.4-1.3-0.4-2
	c0-2.6,1.8-4.7,4-4.7c1,0,1.8,0.4,2.5,1c14.9-12.6,31.4-20,37.7-22.5c-0.2,0-0.4,0.1-0.7,0.1c-2.2,0-4-2.1-4-4.7
	c0-0.4,0.1-0.8,0.2-1.2h-12c0.1,0.4,0.2,0.8,0.2,1.2c0,2.6-1.8,4.7-4,4.7c-2.2,0-4-2.1-4-4.7c0-0.4,0.1-0.8,0.2-1.2h-12
	c0.1,0.4,0.2,0.8,0.2,1.2c0,2.6-1.8,4.7-4,4.7c-2.2,0-4-2.1-4-4.7c0-0.4,0.1-0.8,0.2-1.2h-12c0.1,0.4,0.2,0.8,0.2,1.2
	c0,2.6-1.8,4.7-4,4.7c-2.2,0-4-2.1-4-4.7c0-0.4,0.1-0.8,0.2-1.2h-12c0.1,0.4,0.2,0.8,0.2,1.2c0,2.6-1.8,4.7-4,4.7
	c-2.2,0-4-2.1-4-4.7c0-0.4,0.1-0.8,0.2-1.2h-12c0.1,0.4,0.2,0.8,0.2,1.2c0,2.6-1.8,4.7-4,4.7c-2.2,0-4-2.1-4-4.7
	c0-0.4,0.1-0.8,0.2-1.2h-12c0.1,0.4,0.2,0.8,0.2,1.2c0,2.6-1.8,4.7-4,4.7c-2.2,0-4-2.1-4-4.7c0-0.4,0.1-0.8,0.2-1.2h-12
	c0.1,0.4,0.2,0.8,0.2,1.2c0,2.6-1.8,4.7-4,4.7c-2.2,0-4-2.1-4-4.7c0-0.4,0.1-0.8,0.2-1.2H58c0.1,0.4,0.2,0.8,0.2,1.2
	c0,2.6-1.8,4.7-4,4.7s-4-2.1-4-4.7c0-0.4,0.1-0.8,0.2-1.2h-12c0.1,0.4,0.2,0.8,0.2,1.2c0,2.6-1.8,4.7-4,4.7c-0.7,0-1.4-0.2-1.9-0.6
	v22.6c0.6-0.4,1.2-0.6,1.9-0.6c2.2,0,4,2.1,4,4.7s-1.8,4.7-4,4.7c-0.7,0-1.4-0.2-1.9-0.6v21.1c0.6-0.4,1.2-0.6,1.9-0.6
	c2.2,0,4,2.1,4,4.7c0,2.6-1.8,4.7-4,4.7c-0.7,0-1.4-0.2-1.9-0.6v19.6c0.6-0.3,1.2-0.5,1.9-0.5c2.5,0,4.6,2.4,4.6,5.3
	c0,2.9-2,5.3-4.6,5.3c-0.7,0-1.4-0.2-1.9-0.5v18.2c0.6-0.3,1.3-0.4,1.9-0.4c2.8,0,5.1,2.6,5.1,5.9c0,3.3-2.3,5.9-5.1,5.9
	c-0.7,0-1.3-0.2-1.9-0.4V176c0.6-0.3,1.3-0.4,1.9-0.4c3.1,0,5.6,2.9,5.6,6.5c0,3.6-2.5,6.5-5.6,6.5c-0.7,0-1.3-0.1-1.9-0.4v15.5
	c0.6-0.2,1.3-0.4,1.9-0.4c3.4,0,6.2,3.2,6.2,7.2c0,4-2.8,7.2-6.2,7.2c-0.7,0-1.3-0.1-1.9-0.4v14.2c0.6-0.2,1.3-0.3,1.9-0.3
	c3.7,0,6.7,3.5,6.7,7.8c0,4.3-3,7.8-6.7,7.8c-0.7,0-1.3-0.1-1.9-0.3v12.9c0.6-0.2,1.3-0.3,1.9-0.3c4,0,7.3,3.8,7.3,8.4
	s-3.3,8.4-7.3,8.4c-0.7,0-1.3-0.1-1.9-0.3V287c0.6-0.2,1.3-0.3,1.9-0.3c4.3,0,7.8,4,7.8,9c0,5-3.5,9-7.8,9c-0.7,0-1.3-0.1-1.9-0.3
	v10.3c0.6-0.2,1.3-0.3,1.9-0.3c4.6,0,8.3,4.3,8.3,9.6c0,5.3-3.7,9.6-8.3,9.6c-0.7,0-1.3-0.1-1.9-0.3v9.1c0.6-0.2,1.3-0.3,1.9-0.3
	c4.9,0,8.9,4.6,8.9,10.3s-4,10.3-8.9,10.3c-0.7,0-1.3-0.1-1.9-0.3v7.8c0.6-0.2,1.3-0.2,1.9-0.2c5.2,0,9.4,4.9,9.4,10.9
	c0,6-4.2,10.9-9.4,10.9c-0.7,0-1.3-0.1-1.9-0.2V398.2z M370.8,122.2l1.7-2.9c1.1-1.9,2.2-3.3,3.3-4.4c-0.9-1.2-1.9-2.4-3-3.8
	c-5-2.4-6,9.4-3.5,11.9c10.9,10.3,29.3,31.1,36.3,46.9c-3.9-13.3-12.8-30.2-32.4-45.8L370.8,122.2z M385.6,125.2
	c0-0.3,0-0.5,0.1-0.8l-5.6-4.4c-0.2,0.1-0.4,0.3-0.7,0.6c2.3,1.9,4.4,3.8,6.4,5.8C385.7,126,385.6,125.6,385.6,125.2z M430.2,455.5
	c5-31.8,12.6-66.2,19.6-81.4c-3.5-2.2-6.9-4.3-9.9-6.1l0.9,1.2c-12.6,12-43.8,137.5-49,205.5l30.7-1.1
	C420.1,545.1,422.9,501.8,430.2,455.5z M389.7,574.7c5-64.1,35.6-192.9,49.6-207.2c-1.8-1.1-3.4-2.1-5-3.1c-1.3-0.8-2.6-1.5-3.9-2.3
	c-15,21.5-57.2,141.9-62,213.3L389.7,574.7z M346.2,507.6c31.2-60.4,77-153.2,76.6-163.7c-0.3-6.6-11.6-11.5-23.6-12.9
	c-5.5,0-11.7-0.1-16.4,1.1c-0.2,0.1-0.3,0.2-0.4,0.3c-0.8,1.4-75.6,131.4-91.5,187l-0.6,10.5C320.9,513.1,341.6,508.5,346.2,507.6z
	 M293,416.4l-2,2.2c1.5-0.1,3-0.2,4.6-0.3l0,0.8c32.3-32.7,66.8-66.2,74.6-73.8c1.1-1.9,2.1-3.7,3-5.3
	c-11.4-4.5-23.3-13.1-25.5-24.3c-2.5-12.5-1.3-25.7-1.3-38c0-6.6-6.5-16.1-14.2-23.1c9.7,20.9,4.5,42.4-2,57.4
	c-4.2,9.6-21.8,18.7-22.5,19l-0.2-0.5c-3.2,1.7-7.5,3.4-10,1.9c-4.5-2.6-1.2-13.1-1.2-13.1s0.9,7.3,4.9,8.5c3.1,0.9,7.8,0.4,9.8,0.1
	c5.5-3.2,15.5-9.8,18.4-16.5c6.7-15.3,11.9-37.4,0.9-58.6c-6.3-5.2-13-8.5-17.8-7.2c-5.9-2.3-15.4-3.8-22.7-4.6
	c0.1,0.2,0.2,0.5,0.2,0.8c0,0.9-0.6,1.5-1.3,1.5c-0.7,0-1.3-0.7-1.3-1.5c0-0.4,0.1-0.7,0.3-1c-4.8-0.5-8.2-0.7-8.2-0.7v-8.8
	c-20.3-3.5-26.5-31.8-27.3-41.6c1.5,8.4,10.3,8.1,10.3,8.1c-16-12.7-11.5-49-23.2-66.2c-30-13-62.4,10.1-74.6,20.3
	c0,0,0,0.1,0.1,0.1l1.2,2l-1.3,2c-0.1,0.2-10.5,16.9-16.3,46.3c-3.4,17.3-9.4,26.9-13.8,34c-3.9,6.2-6.1,9.8-5,15.2l3.8-4.2
	c-1.1-5.2,1.2-8.3,2.9-12l0,16.5l0.4,0.9c0,0,12.9,19.3,11.5,22.3c0,0.1-0.1,0.2-0.2,0.3l2,2.2l-1.8,2.5c-4,5.6-8.7,12.3-9.3,13.5
	c-0.9,2.1-10.4,20.8-16.9,28.9c-0.5,1.5-2,7-0.2,11.7c1.3,3.4,4.3,5.9,8.7,7.2l0.5,0.1l0.4,0.3c1.3,1,2.1,2,2.7,3.1
	c3.7,1.2,8.2,1.2,10.7,1l0,0h0c0.6-0.2,1.2-0.3,2-0.4l0.9-3.4h0.3l-1.1-0.4c0,0-9.3,0.9-12,0c-2.8-0.9-2.8-2.3,0-5.2s8-6.4,12-2.9
	s13.8,7.2,13.8,7.2s3.8-3.2,5-8.7c1.3-5.5-6.5-17.5-6.8-18.9l4.8,3.5c0,0,19.2,33.1,25.5,48.5c0.5,0.5,0.7,1.2,0.8,1.8
	c2.8,3.1,13.5,15.7,10.4,28.2c-1.1,4.3-3,8.1-4.6,11.2c-1.2,2.4-2.4,4.8-2.5,6.1l0,0c0,0.1,0,0.2-0.1,0.3c0,0-0.1,0-0.1,0
	c0,0.1-0.1,0.1-0.1,0.2c0,0.1,0,0.2,0,0.3c0,0.1,0.1,0.3,0.3,0.4c0.1,0.2,0.3,0.3,0.5,0.5c0.2,0.2,0.4,0.3,0.7,0.4
	c1,0.6,2.2,0.9,3,1.2c0.9,0.3,1.5,0.4,1.5,0.4s-0.6,0.1-1.5,0.3c-0.9,0.2-2.1,0.4-3.4,0.3c-0.3,0-0.7,0-1-0.1
	c-0.3-0.1-0.7-0.2-1.1-0.3c-0.4-0.1-0.7-0.4-1.1-0.6c-0.3-0.3-0.6-0.6-0.8-0.9c-2,3.4-5.9,7.9-12.7,8.7c-0.1,0-0.2,0-0.3,0
	c-0.6,0.1-1.1,0.1-1.7,0.1c-1.5,0-3.2-0.2-5-0.6c-0.6-0.1-1.1-0.3-1.6-0.5c-13.5,5-13.5,16.3-13.5,16.3c0.3,2.1,1.1,4,2.4,5.2
	c4.4,3.7,13.2,5.8,23.7,6.8c20.9-2.4,33.2-8.5,46.2-14.9c15.2-7.5,30.9-15.2,61.6-17.4C291.7,417.2,293,416.4,293,416.4z
	 M228.3,437.1c-11.9,5.8-23.2,11.4-40.9,14.2c16.1,0.7,34.7-1,47.1-4.5c17-4.7,41.9-19.8,53-26.9C258.3,422.4,243,429.9,228.3,437.1
	z M149.3,345.4c4.2-0.1,9.6,0.7,12.9,2c3.7-0.4,7.6-0.8,10.8,0.6c0.1-0.3,0.3-0.5,0.5-0.7c-1.9-2.2-3.6-3.7-4.6-3.6
	c-4.5,0.4-16.3,0-16.3,0h-2.8L149.3,345.4z M176.4,416.1c-0.3-1-0.9-2.2-1.5-2.7c-0.3-0.2-0.5-0.4-0.7-0.7c-0.5,0.1-1,0.2-1.6,0.2
	c0,0-0.1,0-0.1,0c-1,0-2-0.3-2.9-0.7c0,1.6-0.1,3.2,0.1,4.7c0.1,0.4,0.1,0.8,0,1.2c0.5,0.3,1,0.6,1.6,0.7c1.4,0.3,2.7,0.5,3.8,0.5
	c0.2-0.3,0.5-0.6,0.8-0.8C176.9,418,176.7,417.2,176.4,416.1z M140.5,351.7c-1.8,0-4.8,1.6-7.3,3.3c-4.3,6.2-6.9,14.7-6.8,23.6
	c0,2.9,0.4,5.6,0.9,8.3c0.9-8.4,4.6-15.5,6.5-18.8C135.1,363.1,137.3,357.6,140.5,351.7z M116,386.5c0.3,3.8,1.1,7.5,2.5,11.1
	c-1-9.2,1.4-18.7,4-23c0.4-5.8,1.8-11.4,4-16.3C122.4,365,116.5,376,116,386.5z M145.5,369.2c0,3.1,0.4,6.9,1.2,10.7
	c0.7,3,2,7.5,4.4,10.6c-0.8-11.7,1.3-23.9,3.2-33.5c-2.3,4-5.1,11.6-6.2,18.1c-0.3-3.4-0.1-9.1,0.1-13.7
	C147.3,363.8,146.3,366.4,145.5,369.2z M191.1,388.1c-1.4-1.7-2.4-3.7-3.7-5.5c-0.9,0.1-1.6,0.7-2.4,1.2c-0.2,0.1-0.4,0.3-0.7,0.4
	c0,0,0,0,0,0c0.6,1.4,1,2.8,1.6,4.2c0.3,0.8,0.7,1.8,1.2,2.5c0.2,0.3,0.3,0.4,0.5,0.5c0,0,0.2,0.1,0.2,0.1c0.4-0.1,0.8-0.1,1.1,0
	C189.8,390.6,190.6,389.4,191.1,388.1z M186.7,405.3c0-0.2,0-0.4,0-0.6c0-0.5-0.1-1-0.2-1.5c-0.4-1-0.8-2.1-1.1-3.2
	c-0.3-0.6-0.5-1.2-0.8-1.7c-0.3-0.6-0.4-1.3-0.3-1.8c-0.1-0.4-0.2-0.8-0.3-1.2c-0.1-0.1-0.1-0.2-0.2-0.3c-1.2,0.6-3.3,2.9-5,5.5
	l0.5,5.4c1.1,1.4,2.6,2.1,4,1.9C184.4,407.6,185.6,406.8,186.7,405.3z M163.1,355.6c-0.3,0.5-0.6,1-0.9,1.5
	c-0.8,4.1-4.5,25.2-0.6,39.1l0.6,0.3c0.2-3.6,0.5-7.3,0.8-11.1C163.7,374.6,164.6,363.6,163.1,355.6z M176.9,387.3
	c-0.1,0-0.1,0-0.2,0c-0.3,0-0.6-0.1-0.9-0.1c0.4,3.3,0.9,6.6,1.3,9.8c1-1.4,2.4-3.1,3.9-4.3c0-0.1-0.1-0.2-0.1-0.3
	c-0.2-1.2-0.5-2.4-0.8-3.6C179.2,388.1,178,387.6,176.9,387.3z M168,365.4C168,365.4,167.9,365.4,168,365.4
	c-0.1,2.7-0.1,5.6-0.3,8.5c1,0.8,2.1,1.6,3.1,2.1c-0.4-3-0.6-6-0.9-8.9c-0.7-0.3-1.2-1-1.4-1.8C168.4,365.4,168.2,365.4,168,365.4z
	 M167,384.6c0.7,2.2,1.2,3.7,1.5,4.8c0.4-0.3,0.8-0.6,1.2-0.9c0.8-1.2,1.3-2.9,1.7-4.7l-4-3.9C167.2,381.5,167.1,383.1,167,384.6z
	 M157.8,403.7c1.1,3,2.7,5.7,4.7,8.1c-0.3-1.8-0.4-3.6-0.5-5.7L157.8,403.7z M174.4,398.1c0.3,0.1,0.6,0.1,0.9,0
	c-0.4-2.8-0.8-5.7-1.2-8.7c-0.8,0.6-1.6,1.2-2.4,1.8c-0.1,0.2-0.3,0.4-0.4,0.6c-0.6,0.6-1.2,1.1-1.8,1.5
	C171.1,395.7,172.9,397.7,174.4,398.1z M159.4,361.3c-0.8,1.2-1.6,2.3-2.4,3.3c-1.6,9.1-2.8,19.4-1.7,28.7l0.2-0.5l3.6,2
	C156.6,383.5,158.2,369,159.4,361.3z M172.6,409.4c0.3,0,0.6,0,0.8-0.1l-0.8-8.2c-0.8-0.4-1.6-1-2.3-1.7c-1.4,2.3-2,5-2.1,7.8
	C169.4,408.3,171,409.4,172.6,409.4z M183.5,369.4c1.2,2,2.4,3.9,3.6,5.8c0.1-0.3,0.3-0.6,0.2-0.8c-0.1-1.5-0.8-2.9-1.3-4.3
	c0,0,0,0,0,0C185.2,369.8,184.3,369.5,183.5,369.4z M180.7,368.8c-0.3,0-0.5-0.1-0.8-0.1c0.6,3.2,1.4,6.8,2.2,10.5
	c1.3-0.7,2.5-1.6,3.8-2C184.2,374.6,182.5,371.8,180.7,368.8z M177.8,368.3c-0.9-0.2-1.9-0.3-2.8-0.5c0.2,2.8,0.4,5.8,0.9,8.7
	c0.4,0.5,0.6,1.1,0.6,1.9c0,0.2,0,0.7,0,1.2c0.2,0.7,0.4,1.3,0.6,1.9c0.5-0.1,1.1-0.2,1.7-0.3c0.3-0.6,0.7-1,1.4-1.3
	C179.4,376.3,178.6,372.4,177.8,368.3z M173.7,356.9c-0.5,0.2-1,0.2-1.5,0.1c0.2,1.2,0.3,2.5,0.5,4c0.2,0.3,0.4,0.6,0.6,0.9
	c0.3-0.1,0.6-0.1,1,0c0.7,0.2,1.5,0.3,2.2,0.4c0-0.2-0.1-0.5-0.1-0.7C175.5,360,174.6,358.5,173.7,356.9z M169.6,353.3
	c-1-0.2-2-0.3-2.9-0.3c0.3,1.3,0.5,2.6,0.7,4.1c0.8,0.3,1.9,0.8,3,1.7C170.1,356.4,169.8,354.6,169.6,353.3z M153.3,403
	c-1.1-3.4-1.7-7-2.1-10.7c-3.1-3.3-4.7-8.7-5.5-12.1c-0.5-2.4-0.9-4.9-1.1-7.3C143,381.9,144,392.3,153.3,403z M164.2,417.8
	C164.2,417.8,164.2,417.8,164.2,417.8C164.2,417.8,164.2,417.8,164.2,417.8C164.2,417.8,164.2,417.8,164.2,417.8z M181.6,417.8
	c1.6-0.8,2.9-1.9,3.8-3.1c-0.2-0.4-0.3-0.9-0.3-1.5c0.1-0.9,0.2-1.8,0.5-2.7c-0.8,0.4-1.6,0.6-2.3,0.7c-0.2,0-0.4,0-0.6,0
	c-1.1,0-2.3-0.3-3.3-0.9c0,0.2,0.1,0.4,0.1,0.5C180.8,412.8,181.6,415.4,181.6,417.8z M192.9,403.5l-0.2-0.1c0.9-2.7-0.7-5.8-2-7.6
	c0,0-0.1,0.1-0.1,0.1c-0.2,0.4-0.6,0.8-1.1,1c1,2.2,1.9,4.5,2,6.9c0.1,0.8,0,1.7-0.1,2.5c0.3-0.7,0.7-1.4,1.1-2.1
	C192.7,404,192.8,403.8,192.9,403.5z M196.9,393.6c-0.9-0.7-1.8-1.5-2.7-2.3c-0.2,0.4-0.4,0.8-0.7,1.2c0.8,1,1.7,2.5,2.4,4.3
	c0.3-0.9,0.6-1.8,0.9-2.8C196.8,393.9,196.8,393.8,196.9,393.6z M196.6,386.1c-0.9-3.6-2.7-7-4.6-9.8c-0.1,0.3-0.2,0.7-0.3,1
	c-0.2,0.4-0.6,0.9-0.7,1.4c1.2,1.8,2.3,3.8,3.7,5.5C195.3,384.9,196,385.5,196.6,386.1z M185.4,363.9c-0.3-0.5-0.7-1-1-1.5
	c-2.2,1-4.8-1.7-6.4-3.1c0.1,0.4,0.2,0.9,0.3,1.4c0.4,0.7,0.8,1.4,1.3,2.2C181.5,363.1,183.5,363.5,185.4,363.9z M146.8,354.7
	c-2.2,1.4-5.9,7.6-8.3,11.9c-1.2,3.9-1.9,7.6-2.1,11.2c1.1,4.2,2.8,7.9,4.6,11C137.6,375,143.2,362.6,146.8,354.7z M138.7,347.7
	h-1.6l0.2,0.4C137.7,347.9,138.2,347.8,138.7,347.7z M158.1,153.7c0,0.7-0.1,1.4-0.3,2.1c0.3-0.6,0.6-1.2,0.9-1.6
	c-0.1-0.3-0.3-0.5-0.4-0.8c-0.1-0.1-0.2-0.3-0.2-0.4C158.1,153.1,158.1,153.4,158.1,153.7z M177.6,83.9c0.2-0.5,0.4-0.9,0.5-1.3
	c0.4-1,0.8-1.9,1.3-2.8c0.9-1.8,1.8-3.4,2.8-4.9c1-1.4,1.9-2.7,2.8-3.8c0.8-1.1,1.7-2,2.4-2.7c1.4-1.4,2.2-2.2,2.2-2.2
	s-0.2,0.2-0.6,0.5c-0.4,0.3-1.1,0.7-1.8,1.4c-0.7,0.7-1.7,1.4-2.6,2.4c-1,1-2,2.2-3.1,3.6c-1.1,1.4-2.2,3-3.2,4.8
	c-0.5,0.9-1,1.8-1.5,2.8c-0.5,1-0.9,2-1.3,3.1c-0.5,1.3-1,2.7-1.4,4.2c-0.4,0.6-0.8,1.2-1.2,1.9c-1.8,2.9-3.5,6-4.9,9.1
	c-1.5,3.1-2.6,6.4-3.5,9.6c-0.9,3.2-1.5,6.4-1.9,9.5c-0.4,3.1-0.4,6-0.2,8.7c0.1,1.4,0.3,2.6,0.5,3.9c0.3,1.2,0.5,2.3,0.9,3.4
	c0.3,1.1,0.7,2,1.1,2.8c0.2,0.4,0.4,0.8,0.6,1.2c0.2,0.4,0.4,0.7,0.6,1c0.4,0.6,0.8,1.2,1.2,1.6c0.4,0.4,0.7,0.8,1,1
	c0.6,0.5,0.9,0.7,0.9,0.7s-0.3-0.3-0.8-0.8c-0.3-0.3-0.6-0.7-0.9-1.1c-0.4-0.4-0.7-1-1.1-1.6c-0.2-0.3-0.4-0.7-0.5-1
	c-0.2-0.4-0.3-0.8-0.5-1.2c-0.3-0.9-0.6-1.8-0.9-2.8c-0.5-2-0.8-4.4-0.9-7c-0.1-2.6,0.1-5.4,0.5-8.4c0.5-2.9,1.1-6,2.1-9.1
	c1-3.1,2.1-6.2,3.5-9.2c0.9-1.9,1.9-3.8,2.9-5.7c-0.2,1.2-0.4,2.4-0.5,3.6c-0.3,2.5-0.3,5-0.3,7.5c0,2.5,0.3,4.9,0.6,7.2
	c0.7,4.6,2,8.8,3.6,12.1c0.4,0.8,0.8,1.6,1.2,2.3c0.4,0.7,0.8,1.3,1.2,1.9c0.8,1.2,1.6,2.1,2.3,2.8c0.7,0.7,1.3,1.2,1.7,1.5
	c0.4,0.3,0.6,0.5,0.6,0.5s-0.2-0.2-0.6-0.6c-0.2-0.2-0.4-0.4-0.7-0.7c-0.2-0.3-0.5-0.6-0.9-1c-0.6-0.8-1.3-1.8-2-3
	c-0.7-1.2-1.4-2.7-2-4.3c-0.7-1.6-1.2-3.5-1.7-5.5c-0.5-2-0.9-4.1-1.2-6.3c-0.3-2.2-0.4-4.5-0.4-6.9c0-2.4,0.1-4.8,0.3-7.1
	c0.2-2.4,0.6-4.7,1.1-7c0.1-0.6,0.3-1.3,0.4-1.9c1.4-2.2,3-4.2,4.5-6.2c2.1-2.5,4.1-4.9,6.3-7.1c1.5-1.5,3-2.9,4.4-4.2
	c-0.7,1-1.5,2.2-2.1,3.4c-0.5,0.9-1,1.8-1.5,2.8c-0.5,1-0.9,2-1.3,3.1c-0.8,2.1-1.6,4.4-2.1,6.8c-0.6,2.4-1,4.8-1.3,7.3
	c-0.3,2.5-0.3,5-0.3,7.5c0,2.5,0.3,4.9,0.6,7.2c0.7,4.6,2,8.8,3.6,12.1c0.4,0.8,0.8,1.6,1.2,2.3c0.4,0.7,0.8,1.3,1.2,1.9
	c0.8,1.2,1.6,2.1,2.3,2.8c0.7,0.7,1.3,1.2,1.7,1.5c0.4,0.3,0.6,0.5,0.6,0.5s-0.2-0.2-0.6-0.6c-0.2-0.2-0.4-0.4-0.7-0.7
	c-0.2-0.3-0.5-0.6-0.9-1c-0.6-0.8-1.3-1.8-2-3c-0.7-1.2-1.4-2.7-2-4.3c-0.7-1.6-1.2-3.5-1.7-5.5c-0.5-2-0.9-4.1-1.2-6.3
	c-0.3-2.2-0.4-4.5-0.4-6.9c0-2.4,0.1-4.8,0.3-7.1c0.2-2.4,0.6-4.7,1.1-7c0.2-1.1,0.6-2.3,0.8-3.4c0.3-1.1,0.7-2.2,1-3.2
	c0.4-1,0.8-2.1,1.2-3c0.4-1,0.8-1.9,1.3-2.8c0.9-1.8,1.8-3.4,2.8-4.9c0.7-1,1.3-1.9,1.9-2.7c0.4-0.4,0.8-0.7,1.3-1
	c1-0.8,2-1.6,3-2.3c1-0.7,1.9-1.3,2.8-2c0.9-0.6,1.7-1.3,2.5-1.8c1.6-1,3-2,4.2-2.7c2.4-1.4,3.8-2.2,3.8-2.2s-0.2,0.2-0.6,0.5
	c-0.3,0.3-0.8,0.7-1.3,1.2c-0.4,0.3-1,0.7-1.7,1.3c-0.7,0.7-1.7,1.4-2.6,2.4c-1,1-2,2.2-3.1,3.6c-1.1,1.4-2.2,3-3.2,4.8
	c-0.5,0.9-1,1.8-1.5,2.8c-0.5,1-0.9,2-1.3,3.1c-0.8,2.1-1.6,4.4-2.1,6.8c-0.6,2.4-1,4.8-1.3,7.3c-0.3,2.5-0.3,5-0.3,7.5
	c0,2.5,0.3,4.9,0.6,7.2c0.7,4.6,2,8.8,3.6,12.1c0.4,0.8,0.8,1.6,1.2,2.3c0.4,0.7,0.8,1.3,1.2,1.9c0.8,1.2,1.6,2.1,2.3,2.8
	c0.7,0.7,1.3,1.2,1.7,1.5c0.4,0.3,0.6,0.5,0.6,0.5s-0.2-0.2-0.6-0.6c-0.2-0.2-0.4-0.4-0.7-0.7c-0.2-0.3-0.5-0.6-0.9-1
	c-0.6-0.8-1.3-1.8-2-3c-0.7-1.2-1.4-2.7-2-4.3c-0.7-1.6-1.2-3.5-1.7-5.5c-0.5-2-0.9-4.1-1.2-6.3c-0.3-2.2-0.4-4.5-0.4-6.9
	c0-2.4,0.1-4.8,0.3-7.1c0.2-2.4,0.6-4.7,1.1-7c0.2-1.1,0.6-2.3,0.8-3.4c0.3-1.1,0.7-2.2,1-3.2c0.4-1,0.8-2.1,1.2-3
	c0.4-1,0.8-1.9,1.3-2.8c0.9-1.8,1.8-3.4,2.8-4.9c1-1.4,1.9-2.7,2.8-3.8c0.4-0.5,0.7-0.9,1.1-1.3c-0.9,1-1.7,2.2-2.6,3.6
	c-0.9,1.5-1.8,3.1-2.6,5c-0.2,0.5-0.4,0.9-0.6,1.4c-0.2,0.5-0.4,1-0.6,1.5c-0.4,1-0.7,2.1-1,3.1c-0.6,2.2-1.1,4.4-1.4,6.8
	c-0.2,1.2-0.3,2.4-0.4,3.6c0,1.2-0.1,2.4-0.1,3.6c0,2.4,0.2,4.8,0.5,7.2c0.3,2.4,0.8,4.6,1.3,6.8c0.5,2.2,1.3,4.2,2,6.1
	c0.8,1.9,1.6,3.6,2.5,5.1c0.4,0.8,0.9,1.4,1.3,2.1c0.5,0.6,0.9,1.2,1.3,1.8c0.9,1.1,1.7,1.9,2.4,2.6c0.7,0.7,1.3,1.1,1.7,1.4
	c0.4,0.3,0.6,0.5,0.6,0.5s-0.2-0.2-0.6-0.6c-0.2-0.2-0.4-0.4-0.7-0.7c-0.2-0.3-0.5-0.6-0.8-1c-0.6-0.7-1.3-1.7-2.1-2.8
	c-0.7-1.1-1.5-2.5-2.2-4c-0.7-1.5-1.4-3.2-2.1-5.1c-0.6-1.9-1.2-3.8-1.7-5.9c-0.9-4.2-1.5-8.8-1.5-13.4c0-1.2,0.1-2.3,0.1-3.5
	c0.1-1.1,0.2-2.3,0.3-3.4c0.3-2.3,0.7-4.4,1.2-6.5c0.3-1,0.5-2.1,0.9-3c0.2-0.5,0.3-1,0.5-1.5c0.2-0.5,0.4-0.9,0.5-1.4
	c0.7-1.8,1.5-3.5,2.3-5c0.8-1.5,1.6-2.8,2.3-3.9c0.7-1.2,1.5-2.1,2-2.9c0,0,0,0,0,0c-0.5,0.8-1.2,1.7-1.9,2.8
	c-0.4,0.6-0.7,1.2-1,1.9c-0.4,0.7-0.7,1.4-1,2.2c-0.7,1.6-1.3,3.3-1.8,5.2c-0.3,1-0.5,2-0.7,3c-0.2,1-0.4,2.1-0.5,3.2
	c-0.3,2.2-0.4,4.4-0.4,6.7c0,2.3,0.2,4.6,0.5,6.9c0.4,2.3,0.8,4.6,1.4,6.8c0.6,2.2,1.3,4.3,2,6.3c0.8,2,1.6,3.9,2.5,5.6
	c0.9,1.7,1.9,3.2,2.8,4.6c1,1.4,1.9,2.5,2.8,3.5c0.9,1,1.7,1.8,2.4,2.4c0.7,0.6,1.3,1,1.7,1.3c0.4,0.3,0.6,0.4,0.6,0.4
	s-0.2-0.2-0.5-0.5c-0.2-0.2-0.4-0.4-0.6-0.6c-0.2-0.3-0.5-0.6-0.8-0.9c-0.6-0.7-1.3-1.6-2.1-2.6c-0.8-1-1.6-2.3-2.4-3.7
	c-0.8-1.4-1.6-3-2.4-4.7c-0.8-1.7-1.5-3.6-2.2-5.5c-0.7-1.9-1.3-4-1.8-6.1c-0.5-2.1-0.9-4.3-1.3-6.5c-0.3-2.2-0.5-4.4-0.6-6.6
	c0-2.2,0-4.4,0.2-6.4c0.2-2.1,0.5-4.1,0.9-5.9c0.2-0.9,0.4-1.8,0.7-2.7c0,0,0,0,0-0.1c-0.2,0.9-0.3,1.9-0.4,3
	c-0.2,2-0.3,4.1-0.2,6.2c0.1,4.3,0.9,8.8,2.1,13.2c0.6,2.2,1.3,4.3,2.1,6.4c0.8,2.1,1.6,4,2.5,5.9c0.9,1.9,1.9,3.6,2.8,5.2
	c1,1.6,2,3.1,2.9,4.3c1,1.3,1.9,2.4,2.8,3.3c0.4,0.5,0.9,0.9,1.3,1.3c0.4,0.4,0.8,0.7,1.1,1c0.7,0.6,1.3,1,1.7,1.3
	c0.4,0.3,0.6,0.4,0.6,0.4s-0.2-0.2-0.5-0.5c-0.2-0.2-0.4-0.4-0.6-0.6c-0.2-0.3-0.5-0.6-0.8-0.9c-0.3-0.3-0.6-0.7-1-1.2
	c-0.4-0.4-0.7-0.9-1.1-1.4c-0.4-0.5-0.8-1.1-1.2-1.7c-0.4-0.6-0.8-1.2-1.3-1.9c-0.9-1.3-1.7-2.8-2.6-4.5c-0.9-1.6-1.7-3.4-2.5-5.2
	c-0.8-1.8-1.6-3.8-2.3-5.8c-0.7-2-1.4-4.1-2-6.2c-0.6-2.1-1.1-4.2-1.4-6.4c-0.3-2.1-0.7-4.2-0.8-6.3c-0.2-2.1-0.2-4-0.1-5.9
	c0-0.9,0.1-1.9,0.2-2.7c0.1-0.9,0.2-1.7,0.4-2.5c0.3-1.6,0.7-3.1,1.1-4.3c0.5-1.2,0.9-2.3,1.3-3.1c0.4-0.9,0.8-1.5,1-1.9
	c0.3-0.4,0.4-0.7,0.4-0.7s-1.4,0.6-3.9,1.8c-1.2,0.6-2.7,1.4-4.4,2.3c-1.5,0.8-3.2,1.9-5,3c0.7-0.7,1.2-1.2,1.2-1.2
	s-0.2,0.2-0.6,0.5c-0.4,0.3-1.1,0.7-1.8,1.4c-0.2,0.2-0.5,0.4-0.7,0.7c-0.5,0.4-1.1,0.8-1.7,1.2c-1.1,0.7-2.1,1.6-3.2,2.5
	c-2.2,1.7-4.5,3.7-6.7,5.8c-2.2,2.2-4.4,4.5-6.5,7.1C178.3,83,177.9,83.5,177.6,83.9z M384.5,301.9c0-1.5,0-3,0.1-4.6
	c0-1.5,0.1-3.1,0.2-4.6c0.1-1.5,0.2-3,0.3-4.4c0.2-2.9,0.4-5.6,0.5-7.9c0.3-4.6,0.5-7.7,0.5-7.7s-0.9,3-1.7,7.5
	c-0.4,2.3-0.8,5-1.2,7.9c-0.2,1.5-0.3,2.9-0.4,4.5c-0.1,1.5-0.2,3.1-0.3,4.7c0,1.6-0.1,3.1,0,4.7c0,1.5,0.1,3.1,0.2,4.5
	c0.1,1.5,0.3,2.9,0.6,4.2c0.3,1.3,0.6,2.6,0.9,3.7c0.4,1.1,0.8,2.1,1.3,2.9c0.4,0.8,1,1.5,1.4,1.9c0.2,0.2,0.5,0.4,0.6,0.6
	c0.2,0.1,0.4,0.2,0.5,0.3c0.3,0.2,0.4,0.3,0.4,0.3s-0.1-0.1-0.4-0.4c-0.1-0.1-0.3-0.3-0.4-0.4c-0.1-0.2-0.3-0.4-0.5-0.7
	c-0.3-0.5-0.7-1.2-1-2c-0.3-0.8-0.6-1.8-0.8-2.9c-0.2-1.1-0.4-2.3-0.5-3.6c-0.1-1.3-0.2-2.7-0.3-4.1
	C384.5,304.9,384.5,303.4,384.5,301.9z M393.7,280.1c-0.1,2.2-0.2,4.8-0.1,7.6c0.1,1.4,0.1,2.8,0.3,4.3c0.1,1.5,0.3,2.9,0.5,4.4
	c0.2,1.5,0.5,2.9,0.8,4.4c0.3,1.4,0.7,2.8,1.1,4.2c0.4,1.3,0.9,2.6,1.4,3.7c0.5,1.2,1.1,2.2,1.7,3.1c0.6,0.9,1.2,1.7,1.8,2.3
	c0.3,0.3,0.6,0.6,0.8,0.9c0.3,0.2,0.5,0.4,0.8,0.6c0.4,0.4,0.9,0.6,1.1,0.8c0.3,0.2,0.4,0.2,0.4,0.2s-0.1-0.1-0.3-0.4
	c-0.2-0.2-0.6-0.5-0.9-1c-0.2-0.2-0.4-0.5-0.6-0.8c-0.2-0.3-0.4-0.6-0.7-1c-0.2-0.3-0.5-0.7-0.7-1.1c-0.2-0.4-0.5-0.8-0.7-1.3
	c-0.2-0.5-0.5-1-0.7-1.5c-0.2-0.5-0.4-1.1-0.6-1.6c-0.4-1.1-0.8-2.4-1.1-3.7c-0.2-0.6-0.3-1.3-0.5-2c-0.1-0.7-0.3-1.4-0.4-2.1
	c-0.3-1.4-0.5-2.8-0.7-4.2c-0.2-1.4-0.4-2.9-0.6-4.3c-0.2-1.4-0.3-2.8-0.4-4.2c-0.1-1.4-0.2-2.7-0.3-3.9c-0.1-1.3-0.2-2.4-0.2-3.5
	c-0.2-4.4-0.4-7.4-0.4-7.4S393.9,275.7,393.7,280.1z M331.6,242.3c1.3,1.1,2.6,2.5,4,3.9c1.4,1.5,2.8,3.1,4.2,4.8
	c1.4,1.7,2.8,3.6,4.2,5.4c1.4,1.9,2.7,3.9,4,5.9c1.3,2,2.6,4.1,3.8,6.1c1.2,2.1,2.3,4.1,3.3,6.2c1,2,2,4,2.8,5.9
	c0.8,1.9,1.6,3.8,2.2,5.5c0.6,1.7,1.1,3.4,1.5,4.8c0.2,0.7,0.3,1.4,0.5,2.1c0.1,0.7,0.2,1.2,0.3,1.8c0.1,1.1,0.2,2,0.2,2.5
	c0,0.6,0,0.9,0,0.9s0-0.3,0.1-0.9c0.1-0.6,0.1-1.5,0.1-2.6c0-0.6-0.1-1.2-0.1-1.9c-0.1-0.7-0.2-1.4-0.3-2.2
	c-0.3-1.5-0.6-3.3-1.2-5.1c-0.5-1.8-1.2-3.8-1.9-5.8c-0.8-2-1.6-4.1-2.6-6.2c-2-4.2-4.4-8.5-7-12.6c-1.3-2.1-2.7-4-4.1-6
	c-1.4-1.9-2.9-3.7-4.4-5.4c-1.5-1.7-3-3.2-4.4-4.7c-1.5-1.4-2.9-2.7-4.3-3.7c-0.7-0.5-1.4-1-2-1.5c-0.6-0.5-1.3-0.8-1.9-1.2
	c-0.6-0.4-1.2-0.7-1.7-0.9c-0.5-0.3-1-0.5-1.5-0.7c-0.5-0.2-0.9-0.4-1.2-0.5c-0.4-0.1-0.7-0.2-0.9-0.3c-0.5-0.1-0.8-0.2-0.8-0.2
	s0.3,0.1,0.7,0.3c0.2,0.1,0.5,0.2,0.9,0.4c0.3,0.2,0.7,0.4,1.1,0.6c0.4,0.2,0.9,0.5,1.4,0.8c0.5,0.3,1,0.7,1.6,1.1
	c0.6,0.4,1.1,0.9,1.7,1.4C330.4,241.1,331,241.7,331.6,242.3z M301.6,224.2c2.1,0.1,4.3,0.2,6.4,0.3c2.2,0.1,4.3,0.1,6.4,0.2
	c2.1,0.1,4.2,0.1,6.2,0.1c4,0.1,7.8,0.1,11,0c3.2,0,5.9-0.1,7.8-0.2c1.9-0.1,3-0.1,3-0.1s-1.1-0.1-3-0.3c-1.9-0.2-4.6-0.5-7.8-0.7
	c-3.2-0.3-7-0.5-11-0.7c-2-0.1-4.1-0.2-6.2-0.3c-2.1-0.1-4.3-0.2-6.4-0.3c-2.2-0.1-4.3-0.1-6.4-0.2c-2.1-0.1-4.2-0.1-6.2-0.1
	c-4-0.1-7.8-0.1-11,0c-3.2,0-5.9,0.1-7.8,0.2c-1.9,0.1-3,0.1-3,0.1s1.1,0.1,3,0.3c1.9,0.2,4.6,0.5,7.8,0.7c3.2,0.3,7,0.5,11,0.7
	C297.4,224,299.5,224.2,301.6,224.2z M241,110.6c0,0,0.3,0.7,0.9,1.8c0.3,0.6,0.6,1.3,1,2.1c0.3,0.8,0.7,1.8,1.1,2.8
	c0.2,0.5,0.4,1.1,0.6,1.6c0.2,0.6,0.3,1.2,0.5,1.8c0.2,0.6,0.3,1.3,0.5,1.9c0.2,0.6,0.3,1.3,0.5,2c0.3,1.4,0.5,2.8,0.8,4.2
	c0.2,1.5,0.5,2.9,0.6,4.4c0.2,1.5,0.4,3,0.6,4.5c0.1,1.5,0.4,2.9,0.5,4.4c0.3,2.8,0.6,5.5,0.9,7.7c0.6,4.5,1.1,7.6,1.1,7.6
	s0.1-3.1,0-7.7c0-2.3-0.1-5-0.3-7.8c-0.1-1.4-0.2-2.9-0.3-4.4c-0.2-1.5-0.3-3-0.5-4.6c-0.2-1.5-0.5-3-0.7-4.5
	c-0.3-1.5-0.6-2.9-1-4.3c-0.2-0.7-0.4-1.4-0.6-2c-0.2-0.7-0.4-1.3-0.7-1.9c-0.2-0.6-0.5-1.2-0.7-1.8c-0.3-0.6-0.5-1.1-0.8-1.6
	c-1-2-2-3.6-2.8-4.6C241.5,111.2,241,110.6,241,110.6z M241.6,107.9c1.6,1.1,2.8,1.6,2.8,1.6s-0.8-1.2-2.2-2.7
	c-0.7-0.8-1.5-1.6-2.4-2.5c-0.9-0.9-1.9-1.8-2.9-2.6c-1-0.9-2-1.7-3-2.4c-1-0.7-1.9-1.4-2.7-1.9c-1.6-1.1-2.8-1.6-2.8-1.6
	s0.8,1.2,2.2,2.7c0.7,0.8,1.5,1.6,2.4,2.5c0.9,0.9,1.9,1.8,2.9,2.6c1,0.9,2,1.7,3,2.4C239.8,106.8,240.8,107.4,241.6,107.9z
	 M381.3,214.6c0.2,0.4,0.4,0.9,0.6,1.2c0.4,0.7,0.6,1.4,0.8,1.8c0.2,0.4,0.3,0.6,0.3,0.6s-0.1-0.2-0.2-0.7c-0.1-0.4-0.3-1.1-0.6-1.9
	c-0.1-0.4-0.3-0.9-0.5-1.3c-0.2-0.5-0.4-1-0.7-1.5c-0.2-0.6-0.5-1.1-0.8-1.7c-0.3-0.6-0.6-1.2-1-1.8c-0.7-1.3-1.6-2.6-2.5-3.9
	c-1-1.3-2-2.7-3.2-4c-1.1-1.3-2.4-2.7-3.7-4c-1.3-1.3-2.6-2.6-4-3.8c-1.4-1.2-2.8-2.4-4.2-3.5c-1.4-1.1-2.8-2.2-4.2-3.2
	c-2.7-2-5.4-3.7-7.7-5.1c-4.6-2.8-7.8-4.2-7.8-4.2c0,0,2.9,2.1,7.2,5.3c2.2,1.6,4.7,3.5,7.3,5.6c1.3,1,2.7,2.2,4,3.3
	c1.4,1.1,2.7,2.3,4.1,3.5c1.4,1.2,2.7,2.4,4,3.7c1.3,1.3,2.5,2.5,3.7,3.7c0.6,0.6,1.1,1.3,1.7,1.9c0.6,0.6,1.1,1.2,1.6,1.8
	c0.5,0.6,1,1.2,1.4,1.8c0.5,0.6,0.9,1.2,1.3,1.7c0.4,0.6,0.8,1.1,1.1,1.7c0.4,0.5,0.7,1,1,1.5C380.8,213.7,381.1,214.2,381.3,214.6z
	 M380.9,323.9c-0.1-0.3-0.3-0.7-0.4-1.3c-0.2-0.6-0.3-1.3-0.4-2.1c-0.1-0.8-0.2-1.7-0.3-2.7c-0.2-2-0.4-4.4-0.5-6.9
	c-0.1-1.3-0.2-2.6-0.2-3.9c-0.1-1.3-0.1-2.7-0.2-4c-0.2-2.7-0.3-5.4-0.5-8c-0.2-2.5-0.3-4.9-0.5-7c-0.3-4.1-0.7-6.8-0.7-6.8
	s-0.3,2.7-0.5,6.8c-0.1,2.1-0.1,4.5-0.1,7c0,1.3,0,2.6,0.1,4c0.1,1.3,0.1,2.7,0.2,4.1c0.1,1.4,0.2,2.7,0.3,4.1
	c0.1,1.3,0.3,2.7,0.4,3.9c0.3,2.6,0.7,4.9,1.2,6.9c0.2,1,0.5,1.9,0.7,2.7c0.2,0.8,0.5,1.5,0.8,2c0.1,0.3,0.2,0.5,0.4,0.7
	C380.6,323.7,380.7,323.9,380.9,323.9c0.1,0.3,0.2,0.4,0.2,0.4S381,324.2,380.9,323.9z M342.1,186.1c0,0-3.2-2.7-8.1-6.6
	c-2.5-1.9-5.3-4.2-8.5-6.5c-1.6-1.2-3.2-2.4-4.8-3.6c-1.7-1.2-3.3-2.4-5-3.6c-1.7-1.2-3.4-2.4-5-3.6c-1.7-1.2-3.3-2.3-4.9-3.4
	c-3.2-2.2-6.2-4.2-8.8-5.9c-5.2-3.4-8.7-5.5-8.7-5.5s3.2,2.7,8.1,6.6c2.5,1.9,5.3,4.1,8.5,6.5c1.6,1.2,3.2,2.4,4.8,3.6
	c1.7,1.2,3.3,2.4,5,3.6c1.7,1.2,3.4,2.4,5,3.6c1.7,1.2,3.3,2.3,4.9,3.4c3.2,2.2,6.2,4.2,8.8,5.9C338.5,184,342.1,186.1,342.1,186.1z
	 M337,191.4c-1.8-1.4-3.7-2.8-5.6-4.2c-1.9-1.4-3.9-2.8-5.8-4.3c-2-1.4-3.9-2.8-5.8-4.2c-1.9-1.4-3.8-2.7-5.7-4
	c-3.7-2.6-7.2-5-10.2-7c-3-2-5.5-3.6-7.3-4.8c-1.8-1.1-2.8-1.8-2.8-1.8s0.9,0.8,2.6,2.1c1.7,1.3,4,3.3,6.9,5.5
	c2.9,2.3,6.2,4.8,9.8,7.6c1.8,1.4,3.7,2.8,5.6,4.2c1.9,1.4,3.9,2.8,5.8,4.3c2,1.4,3.9,2.8,5.8,4.2c1.9,1.4,3.8,2.7,5.7,4
	c3.7,2.6,7.2,5,10.2,7c3,2,5.5,3.6,7.3,4.8c1.8,1.1,2.8,1.8,2.8,1.8s-0.9-0.8-2.6-2.1c-1.7-1.3-4-3.3-6.9-5.5
	C344,196.7,340.6,194.1,337,191.4z M291,182.8c-1.5-0.7-3-1.4-4.5-2.1c-1.5-0.7-3-1.4-4.5-2.1c-1.5-0.7-3-1.3-4.4-1.9
	c-2.9-1.2-5.6-2.3-7.9-3.3c-4.6-1.8-7.8-2.9-7.8-2.9s2.9,1.8,7.4,4.1c2.2,1.2,4.8,2.5,7.7,3.9c1.4,0.7,2.9,1.4,4.4,2.1
	c1.5,0.7,3,1.4,4.5,2.1c1.5,0.7,3,1.4,4.5,2.1c1.5,0.7,3,1.3,4.4,1.9c2.9,1.2,5.6,2.3,7.9,3.3c4.6,1.8,7.8,2.9,7.8,2.9
	c0,0-2.9-1.8-7.4-4.1c-2.2-1.2-4.8-2.5-7.7-3.9C294,184.3,292.5,183.5,291,182.8z M292.3,199.9c-1.4-0.4-2.9-0.7-4.2-1
	c-2.7-0.6-5.3-1.2-7.5-1.6c-4.4-0.9-7.4-1.3-7.4-1.3c0,0,2.8,1.1,7.2,2.5c2.2,0.7,4.7,1.5,7.4,2.3c1.4,0.4,2.8,0.8,4.2,1.2
	c1.4,0.4,2.9,0.8,4.3,1.2c1.5,0.4,2.9,0.7,4.4,1.1c1.4,0.4,2.9,0.7,4.2,1c2.7,0.6,5.3,1.2,7.5,1.6c4.4,0.9,7.4,1.2,7.4,1.2
	c0,0-2.8-1.1-7.2-2.5c-2.2-0.7-4.7-1.5-7.4-2.3c-1.4-0.4-2.8-0.8-4.2-1.2c-1.4-0.4-2.9-0.8-4.3-1.2
	C295.2,200.6,293.7,200.3,292.3,199.9z M320.6,192.5c2.1,1.3,4.3,2.7,6.4,4.1c2.2,1.4,4.4,2.8,6.7,4.2c2.2,1.4,4.5,2.8,6.7,4.1
	c2.2,1.4,4.4,2.6,6.5,3.9c4.2,2.5,8.2,4.8,11.6,6.8c3.4,2,6.3,3.5,8.3,4.6c2,1.1,3.2,1.7,3.2,1.7s-1.1-0.8-3-2.1
	c-1.9-1.3-4.6-3.2-8-5.4c-3.3-2.2-7.2-4.8-11.4-7.4c-2.1-1.3-4.2-2.7-6.4-4.1c-2.2-1.4-4.4-2.8-6.7-4.2c-2.2-1.4-4.5-2.8-6.7-4.1
	c-2.2-1.3-4.4-2.7-6.5-3.9c-4.2-2.5-8.2-4.8-11.6-6.8c-3.4-2-6.3-3.5-8.3-4.6c-2-1.1-3.2-1.7-3.2-1.7s1.1,0.8,3,2.1
	c1.9,1.3,4.6,3.2,8,5.4C312.6,187.3,316.4,189.8,320.6,192.5z M381.1,199.7c0,0,0-0.8-0.3-2.2c-0.3-1.4-0.7-3.4-1.4-5.7
	c-0.7-2.3-1.5-5-2.6-7.8c-0.5-1.4-1.1-2.8-1.8-4.3c-0.6-1.4-1.3-2.9-2-4.3c-0.7-1.4-1.5-2.8-2.2-4.1c-0.8-1.4-1.6-2.6-2.4-3.8
	c-0.8-1.2-1.7-2.3-2.5-3.4c-0.8-1-1.7-1.9-2.5-2.7c-0.8-0.8-1.6-1.5-2.4-2c-0.7-0.5-1.4-0.9-2-1.2c-0.6-0.3-1-0.5-1.4-0.6
	c-0.3-0.1-0.5-0.2-0.5-0.2s0.2,0.1,0.4,0.3c0.3,0.2,0.7,0.5,1.2,0.9c0.5,0.4,1.1,0.9,1.7,1.5c0.6,0.6,1.3,1.4,2,2.2
	c0.7,0.9,1.4,1.8,2.2,2.9c0.8,1.1,1.5,2.2,2.2,3.4c0.8,1.2,1.5,2.5,2.2,3.8c0.7,1.3,1.4,2.7,2.1,4.1c0.7,1.4,1.4,2.8,2,4.2
	c0.6,1.4,1.3,2.8,1.9,4.1c1.2,2.7,2.3,5.2,3.2,7.4c0.9,2.2,1.6,4,2.1,5.3C380.9,199,381.1,199.7,381.1,199.7z M355.6,171.1
	c-2.4-1.8-4.7-3.4-6.7-4.7c-4-2.6-6.8-3.9-6.8-3.9s2.5,2,6.2,5c0.9,0.8,1.9,1.6,3,2.5c1,0.9,2.1,1.8,3.3,2.8c2.3,2,4.7,4.1,7,6.3
	c4.6,4.4,9,9.2,11.7,13.3c0.4,0.5,0.7,1,1,1.5c0.3,0.5,0.6,0.9,0.8,1.4c0.2,0.4,0.5,0.9,0.7,1.3c0.2,0.4,0.4,0.8,0.5,1.1
	c0.3,0.7,0.5,1.2,0.7,1.6c0.2,0.4,0.2,0.6,0.2,0.6s0-0.2-0.1-0.6c-0.1-0.4-0.2-1-0.4-1.7c-0.1-0.4-0.2-0.8-0.4-1.2
	c-0.1-0.4-0.3-0.9-0.5-1.4c-0.4-1-0.9-2.1-1.5-3.2c-0.6-1.1-1.3-2.3-2.1-3.5c-0.8-1.2-1.7-2.5-2.7-3.7c-1-1.2-2-2.5-3.1-3.6
	c-1.1-1.2-2.3-2.4-3.4-3.5c-1.2-1.1-2.4-2.2-3.6-3.2C358,173,356.8,172,355.6,171.1z M350.7,151.8c0,0-1.2-2.5-3.2-6.1
	c-1-1.8-2.2-3.9-3.5-6.1c-0.7-1.1-1.3-2.3-2.1-3.4c-0.7-1.1-1.4-2.3-2.2-3.5c-0.7-1.1-1.5-2.3-2.2-3.4c-0.7-1.1-1.5-2.2-2.2-3.3
	c-1.4-2.1-2.8-4.1-4-5.7c-2.4-3.3-4.1-5.4-4.1-5.4s1.2,2.5,3.2,6.1c1,1.8,2.2,3.9,3.5,6.1c0.7,1.1,1.3,2.3,2.1,3.4
	c0.7,1.1,1.4,2.3,2.2,3.5c0.7,1.1,1.5,2.3,2.2,3.4c0.7,1.1,1.5,2.2,2.2,3.3c1.4,2.1,2.8,4.1,4,5.7
	C349,149.7,350.7,151.8,350.7,151.8z M323.4,122.3c-2.5-3.4-4.3-5.6-4.3-5.6s1.3,2.6,3.4,6.4c1,1.9,2.3,4.1,3.7,6.4
	c0.7,1.1,1.4,2.3,2.2,3.5c0.7,1.2,1.5,2.4,2.3,3.6c0.8,1.2,1.6,2.4,2.3,3.6c0.8,1.2,1.5,2.3,2.3,3.4c1.5,2.2,2.9,4.2,4.2,5.9
	c2.5,3.4,4.3,5.6,4.3,5.6s-1.3-2.6-3.4-6.4c-1-1.9-2.3-4.1-3.7-6.4c-0.7-1.1-1.4-2.3-2.2-3.5c-0.7-1.2-1.5-2.4-2.3-3.6
	c-0.8-1.2-1.6-2.4-2.3-3.6c-0.8-1.2-1.6-2.3-2.3-3.4C326.1,126,324.6,124,323.4,122.3z M317.9,125.8c-1.3-2.4-2.5-4.7-3.6-6.5
	c-2.2-3.8-3.8-6.2-3.8-6.2s1,2.8,2.8,6.9c0.9,2,1.9,4.4,3.1,6.9c0.6,1.2,1.2,2.5,1.8,3.8c0.6,1.3,1.3,2.6,1.9,3.9
	c0.7,1.3,1.3,2.6,2,3.9c0.7,1.3,1.3,2.5,2,3.7c1.3,2.4,2.5,4.7,3.6,6.5c2.2,3.8,3.8,6.2,3.8,6.2s-1-2.8-2.8-6.9
	c-0.9-2-1.9-4.4-3.1-6.9c-0.6-1.2-1.2-2.6-1.8-3.8c-0.6-1.3-1.3-2.6-1.9-3.9c-0.7-1.3-1.3-2.6-2-3.9
	C319.2,128.3,318.5,127.1,317.9,125.8z M307.4,138.8c-0.6-1.2-1.2-2.6-1.8-3.8c-0.6-1.3-1.3-2.6-1.9-3.9c-0.7-1.3-1.3-2.6-2-3.9
	c-0.7-1.3-1.3-2.5-2-3.7c-1.3-2.4-2.5-4.7-3.6-6.5c-2.2-3.8-3.8-6.2-3.8-6.2s1,2.8,2.8,6.9c0.9,2,1.9,4.4,3.1,6.9
	c0.6,1.2,1.2,2.5,1.8,3.8c0.6,1.3,1.3,2.6,1.9,3.9c0.7,1.3,1.3,2.6,2,3.9c0.7,1.3,1.3,2.5,2,3.7c1.3,2.4,2.5,4.7,3.6,6.5
	c2.2,3.8,3.8,6.2,3.8,6.2s-1-2.8-2.8-6.9C309.7,143.7,308.6,141.3,307.4,138.8z M291.8,123.4c-1.3-2.4-2.5-4.7-3.6-6.5
	c-2.2-3.8-3.8-6.2-3.8-6.2s1,2.8,2.8,6.9c0.9,2,1.9,4.4,3.1,6.9c0.6,1.2,1.2,2.5,1.8,3.8c0.6,1.3,1.3,2.6,1.9,3.9
	c0.7,1.3,1.3,2.6,2,3.9c0.7,1.3,1.3,2.5,2,3.7c1.3,2.4,2.5,4.7,3.6,6.5c2.2,3.8,3.8,6.2,3.8,6.2s-1-2.8-2.8-6.9
	c-0.9-2-1.9-4.4-3.1-6.9c-0.6-1.2-1.2-2.6-1.8-3.8c-0.6-1.3-1.3-2.6-1.9-3.9c-0.7-1.3-1.3-2.6-2-3.9
	C293.2,125.8,292.5,124.6,291.8,123.4z M282.7,152.6c-0.6-1.2-1.2-2.6-1.8-3.8c-0.6-1.3-1.3-2.6-1.9-3.9c-0.7-1.3-1.3-2.6-2-3.9
	c-0.7-1.3-1.3-2.5-2-3.7c-1.3-2.4-2.5-4.7-3.6-6.5c-2.2-3.8-3.8-6.2-3.8-6.2s1,2.8,2.8,6.9c0.9,2,1.9,4.4,3.1,6.9
	c0.6,1.2,1.2,2.5,1.8,3.8c0.6,1.3,1.3,2.6,1.9,3.9c0.7,1.3,1.3,2.6,2,3.9c0.7,1.3,1.3,2.5,2,3.7c1.3,2.4,2.5,4.7,3.6,6.5
	c2.2,3.8,3.8,6.2,3.8,6.2s-1-2.8-2.8-6.9C285,157.5,283.9,155.1,282.7,152.6z M265.8,135.7c-0.6-1.2-1.2-2.4-1.7-3.6
	c-1.1-2.3-2.2-4.4-3.2-6.2c-1.9-3.6-3.4-5.9-3.4-5.9s0.9,2.7,2.4,6.6c0.7,1.9,1.7,4.2,2.7,6.6c0.5,1.2,1,2.4,1.6,3.7
	c0.6,1.2,1.1,2.5,1.7,3.7c0.6,1.2,1.2,2.5,1.7,3.7c0.6,1.2,1.2,2.4,1.7,3.6c1.1,2.3,2.2,4.4,3.2,6.2c1.9,3.6,3.4,5.9,3.4,5.9
	s-0.9-2.7-2.4-6.6c-0.7-1.9-1.7-4.2-2.7-6.6c-0.5-1.2-1-2.4-1.6-3.7c-0.6-1.2-1.1-2.5-1.7-3.7C267,138.2,266.4,136.9,265.8,135.7z
	 M264.8,104.6c0,0-0.8-1.2-2.2-2.7c-0.7-0.8-1.5-1.6-2.4-2.5c-0.9-0.9-1.9-1.8-2.9-2.6c-1-0.9-2-1.7-3-2.4c-1-0.7-1.9-1.4-2.7-1.9
	c-1.6-1.1-2.8-1.6-2.8-1.6s0.8,1.2,2.2,2.7c0.7,0.8,1.5,1.6,2.4,2.5c0.9,0.9,1.9,1.8,2.9,2.6c1,0.9,2,1.7,3,2.4
	c1,0.7,1.9,1.4,2.7,1.9C263.6,104.1,264.8,104.6,264.8,104.6z M252,123.9c0.5,1.8,1,3.9,1.7,6.1c0.3,1.1,0.7,2.3,1,3.4
	c0.4,1.1,0.7,2.3,1.1,3.5c0.4,1.2,0.8,2.3,1.2,3.5c0.4,1.1,0.8,2.2,1.2,3.3c0.8,2.2,1.6,4.1,2.3,5.8c1.4,3.4,2.5,5.6,2.5,5.6
	s-0.5-2.5-1.4-6.1c-0.5-1.8-1-3.9-1.7-6.1c-0.3-1.1-0.7-2.3-1-3.4c-0.4-1.2-0.7-2.3-1.1-3.5c-0.4-1.2-0.8-2.3-1.2-3.5
	c-0.4-1.1-0.8-2.2-1.2-3.3c-0.8-2.2-1.6-4.1-2.3-5.8c-1.4-3.4-2.5-5.6-2.5-5.6S251.1,120.3,252,123.9z M261.9,180.9
	c0,0,1.8,1,4.6,2.2c1.4,0.6,3,1.3,4.8,2c0.9,0.3,1.8,0.7,2.7,1c0.9,0.3,1.9,0.7,2.8,1c1,0.3,1.9,0.6,2.8,0.9
	c0.9,0.3,1.9,0.6,2.8,0.8c1.8,0.5,3.5,1,5,1.3c2.9,0.7,4.9,1,4.9,1c0,0-1.8-1-4.6-2.2c-1.4-0.6-3-1.3-4.8-2c-0.9-0.3-1.8-0.7-2.7-1
	c-0.9-0.3-1.9-0.7-2.8-1c-1-0.3-1.9-0.6-2.8-0.9c-0.9-0.3-1.9-0.6-2.8-0.8c-1.8-0.5-3.5-1-5-1.3
	C263.9,181.2,261.9,180.9,261.9,180.9z M269.6,211.3c0,0,1,0.2,2.8,0.5c1.8,0.2,4.3,0.7,7.4,1c3.1,0.4,6.6,0.8,10.5,1.2
	c1.9,0.2,3.9,0.4,5.9,0.6c2,0.2,4.1,0.4,6.1,0.5c2,0.2,4.1,0.3,6.1,0.5c2,0.2,4,0.3,5.9,0.4c3.8,0.2,7.4,0.4,10.5,0.5
	c3.1,0.1,5.7,0.1,7.5,0.2c1.8,0,2.8,0,2.8,0s-1-0.2-2.8-0.5c-1.8-0.2-4.3-0.7-7.4-1c-3.1-0.4-6.6-0.8-10.5-1.2
	c-1.9-0.2-3.9-0.4-5.9-0.6c-2-0.2-4.1-0.4-6.1-0.5c-2-0.2-4.1-0.3-6.1-0.5c-2-0.2-4-0.3-5.9-0.4c-3.8-0.2-7.4-0.4-10.5-0.5
	c-3.1-0.1-5.7-0.1-7.5-0.2C270.7,211.3,269.6,211.3,269.6,211.3z M364.6,270.8c0.4,0.9,0.8,1.7,1.1,2.5c0.3,0.8,0.7,1.6,1,2.4
	c0.7,1.5,1.2,3,1.7,4.3c0.5,1.3,0.9,2.4,1.3,3.3c0.7,1.9,1.1,2.9,1.1,2.9s-0.3-1.1-0.7-3.1c-0.2-1-0.5-2.2-0.9-3.5
	c-0.4-1.3-0.8-2.9-1.4-4.5c-0.3-0.8-0.5-1.7-0.8-2.5c-0.3-0.9-0.7-1.7-1-2.7c-0.7-1.8-1.5-3.7-2.4-5.6c-1-1.9-1.9-3.9-3-5.7
	l-0.8-1.4l-0.9-1.4c-0.6-0.9-1.2-1.9-1.8-2.8c-0.7-0.9-1.3-1.8-2-2.6c-0.7-0.8-1.4-1.7-2.1-2.5c-0.7-0.9-1.4-1.6-2.1-2.3
	c-0.7-0.8-1.4-1.5-2.2-2.2c-0.7-0.7-1.4-1.4-2.1-2c-0.7-0.6-1.4-1.2-2.1-1.8c-1.4-1.2-2.8-2.2-4-3.1c-1.2-1-2.5-1.7-3.5-2.4
	c-1-0.7-2-1.3-2.8-1.7c-1.6-0.9-2.4-1.4-2.4-1.4s0.8,0.7,2.2,1.8c0.7,0.6,1.6,1.3,2.6,2.1c1,0.8,2.1,1.7,3.3,2.8
	c1.2,1.1,2.5,2.1,3.8,3.4c0.7,0.6,1.3,1.3,2,1.9c0.7,0.7,1.3,1.4,2,2.1c0.7,0.7,1.4,1.5,2,2.2c0.7,0.8,1.4,1.5,2,2.3
	c0.7,0.8,1.3,1.6,2,2.5c0.6,0.9,1.3,1.7,1.9,2.6c0.7,0.8,1.2,1.8,1.8,2.7l0.9,1.3l0.8,1.4c1.1,1.8,2.1,3.7,3.1,5.5
	C362.9,267.3,363.8,269,364.6,270.8z M368,316.8c0,0.8,0.1,1.6,0.2,2.4c0.1,0.8,0.2,1.5,0.4,2.2c0.2,0.7,0.4,1.4,0.6,2
	c0.3,0.6,0.5,1.1,0.8,1.5c0.3,0.4,0.6,0.7,0.9,0.9c0.3,0.2,0.5,0.3,0.7,0.3c0.2,0,0.3,0.1,0.3,0.1s-0.1-0.1-0.2-0.2
	c-0.1-0.1-0.1-0.1-0.2-0.2c-0.1-0.1-0.2-0.2-0.3-0.3c-0.2-0.3-0.4-0.6-0.5-1s-0.3-0.9-0.4-1.5c-0.2-1.1-0.3-2.5-0.4-4
	c0-0.7,0-1.5,0-2.3c0-0.8,0-1.6,0-2.4c0-1.6,0.1-3.2,0.1-4.7c0-1.5,0.1-2.9,0.1-4.2c0-2.4,0-4.1,0-4.1s-0.6,1.5-1.1,3.9
	c-0.3,1.2-0.5,2.6-0.7,4.1c-0.2,1.5-0.3,3.2-0.4,4.8C367.9,315.1,367.9,316,368,316.8z M373.4,263.6c0.6,1.3,1.1,2.6,1.6,3.7
	c0.5,1.1,0.8,2.1,1.1,2.9c0.6,1.6,1,2.5,1,2.5s-0.2-1-0.6-2.7c-0.2-0.9-0.4-1.9-0.8-3.1c-0.4-1.2-0.7-2.5-1.2-3.9
	c-0.5-1.4-1-3-1.8-4.5c-0.4-0.8-0.7-1.6-1.1-2.4c-0.4-0.8-0.9-1.6-1.3-2.4c-1-1.6-2-3.2-3.2-4.7c-0.6-0.8-1.2-1.5-1.9-2.2l-1-1.1
	c-0.3-0.3-0.7-0.7-1-1c-1.4-1.3-2.8-2.5-4.2-3.7c-1.4-1.1-2.9-2.2-4.3-3.1c-1.4-1-2.8-1.8-4.1-2.7c-1.3-0.8-2.6-1.6-3.8-2.3
	c-4.7-2.8-7.9-4.4-7.9-4.4s2.9,2.4,7.3,5.6c2.2,1.6,4.8,3.5,7.5,5.5c0.7,0.5,1.4,1,2.1,1.6c0.7,0.5,1.4,1.1,2.1,1.7
	c1.4,1.2,2.8,2.3,4.1,3.6l1,0.9l0.9,1c0.6,0.7,1.2,1.3,1.8,2.1c1.2,1.4,2.2,2.9,3.2,4.3c0.9,1.5,1.8,3,2.6,4.5
	C372.2,260.9,372.8,262.3,373.4,263.6z M393.5,311.4c-0.2-0.8-0.4-1.6-0.6-2.5c-0.2-0.9-0.4-1.9-0.6-3c-0.2-1.1-0.4-2.2-0.6-3.4
	c-0.3-2.4-0.7-4.9-1-7.4c-0.2-1.3-0.3-2.5-0.4-3.8c-0.1-1.2-0.3-2.5-0.4-3.7c-0.3-2.4-0.5-4.6-0.7-6.5c-0.4-3.8-0.7-6.4-0.7-6.4
	s-0.3,2.6-0.4,6.5c0,1,0,2,0,3.1c0,1.1,0,2.3,0.1,3.5c0.1,1.2,0.1,2.5,0.2,3.7c0.1,1.3,0.2,2.6,0.4,3.8c0.1,1.3,0.4,2.6,0.5,3.8
	c0.2,1.3,0.5,2.5,0.7,3.7c0.2,1.2,0.6,2.3,0.8,3.4c0.3,1.1,0.6,2.1,0.9,3c0.3,0.9,0.7,1.7,1,2.4c0.3,0.7,0.6,1.3,0.9,1.8
	c0.5,1,0.8,1.5,0.8,1.5s-0.2-0.6-0.5-1.7C393.8,312.8,393.6,312.2,393.5,311.4z M386,202.1c0,0,0-0.4,0-1.1c-0.1-0.7,0-1.7-0.2-3
	c-0.1-0.6-0.1-1.3-0.2-2.1c-0.1-0.8-0.2-1.6-0.3-2.5c-0.1-0.9-0.3-1.8-0.5-2.8c-0.2-1-0.4-2-0.6-3.1c-0.2-1.1-0.5-2.2-0.8-3.3
	c-0.3-1.1-0.6-2.3-1-3.5c-0.7-2.4-1.5-4.9-2.4-7.5c-0.9-2.5-1.9-5.2-3-7.8c-1.1-2.6-2.3-5.2-3.5-7.8c-2.5-5.1-5.2-10.1-7.9-14.7
	c-1.3-2.3-2.7-4.4-4.1-6.4c-1.3-2-2.6-3.9-3.9-5.5c-1.2-1.7-2.4-3.2-3.5-4.4c-1.1-1.3-2.1-2.3-2.9-3.2c-0.8-0.8-1.6-1.4-2.1-1.8
	c-0.5-0.3-0.8-0.5-0.8-0.5s0.3,0.2,0.8,0.6c0.5,0.4,1.1,1.1,1.9,2c1.6,1.8,3.6,4.6,5.9,8.1c2.3,3.5,4.8,7.7,7.4,12.2
	c1.3,2.3,2.6,4.7,3.9,7.1c1.3,2.5,2.6,5,3.8,7.5c1.2,2.5,2.4,5.1,3.5,7.7c1.1,2.6,2.2,5.1,3.1,7.6c1,2.5,1.9,4.9,2.6,7.2
	c0.4,1.2,0.8,2.3,1.1,3.4c0.4,1.1,0.7,2.2,1,3.2c0.3,1,0.6,2,0.8,3c0.2,1,0.5,1.9,0.7,2.7c0.2,0.9,0.4,1.7,0.5,2.4
	c0.1,0.8,0.3,1.4,0.4,2.1c0.2,1.2,0.4,2.2,0.5,2.9C386,201.8,386,202.1,386,202.1z M379.1,162.5c0,0,0-0.3-0.1-0.8
	c-0.1-0.5-0.1-1.4-0.3-2.4c-0.1-1-0.4-2.2-0.7-3.6c-0.2-0.7-0.4-1.4-0.6-2.2c-0.2-0.8-0.5-1.5-0.8-2.4c-0.3-0.8-0.6-1.7-0.9-2.5
	c-0.4-0.9-0.7-1.7-1.1-2.7c-0.8-1.8-1.7-3.7-2.7-5.5c-1-1.9-2.1-3.8-3.3-5.6c-1.2-1.9-2.4-3.7-3.7-5.6c-1.3-1.8-2.6-3.6-4-5.3
	c-1.3-1.7-2.7-3.3-4.1-4.9c-1.3-1.6-2.7-3-4-4.3c-1.3-1.3-2.6-2.6-3.7-3.7c-2.4-2.2-4.5-3.9-6-4.9c-0.8-0.5-1.4-0.9-1.8-1.1
	c-0.4-0.2-0.7-0.3-0.7-0.3s0.2,0.2,0.6,0.5c0.4,0.3,0.9,0.8,1.6,1.4c1.4,1.3,3.3,3.2,5.5,5.6c2.2,2.4,4.7,5.3,7.2,8.4
	c1.3,1.6,2.6,3.3,3.9,5c1.3,1.7,2.6,3.5,3.9,5.3c1.3,1.8,2.5,3.6,3.7,5.4c1.2,1.8,2.3,3.6,3.3,5.4c1,1.8,2,3.6,2.9,5.3
	c0.9,1.7,1.6,3.4,2.3,4.9c0.7,1.6,1.2,3,1.7,4.3c0.4,1.3,0.8,2.5,1,3.4c0.3,1,0.4,1.7,0.5,2.3C379,162.2,379.1,162.5,379.1,162.5z
	 M342.1,99.7c0,0-1.2-1.6-3.2-3.7c-1-1.1-2.2-2.3-3.5-3.6c-0.7-0.6-1.3-1.3-2-1.9c-0.7-0.6-1.4-1.3-2.1-1.9
	c-0.7-0.6-1.4-1.3-2.2-1.9c-0.7-0.6-1.4-1.2-2.1-1.8c-1.4-1.1-2.7-2.2-3.9-3c-2.3-1.7-3.9-2.7-3.9-2.7s1.2,1.6,3.2,3.7
	c1,1.1,2.2,2.3,3.5,3.6c0.7,0.6,1.3,1.3,2,1.9c0.7,0.6,1.4,1.3,2.1,1.9c0.7,0.6,1.4,1.3,2.2,1.9c0.7,0.6,1.4,1.2,2.1,1.8
	c1.4,1.1,2.7,2.2,3.9,3C340.5,98.8,342.1,99.7,342.1,99.7z M318.6,87.5c-0.7-0.6-1.3-1.2-2-1.8c-0.7-0.6-1.4-1.1-2-1.7
	c-0.7-0.6-1.4-1.1-2-1.6c-1.3-1-2.6-1.9-3.7-2.7c-2.2-1.5-3.7-2.4-3.7-2.4s1.2,1.5,3,3.4c0.9,1,2.1,2.1,3.3,3.3
	c0.6,0.6,1.2,1.2,1.9,1.8c0.7,0.6,1.3,1.2,2,1.8c0.7,0.6,1.4,1.1,2,1.7c0.7,0.6,1.4,1.1,2,1.6c1.3,1,2.6,1.9,3.7,2.7
	c2.2,1.5,3.7,2.4,3.7,2.4s-1.2-1.5-3-3.4c-0.9-1-2.1-2.1-3.3-3.2C319.9,88.6,319.3,88,318.6,87.5z M303.4,84.5
	c-1.2-1.1-2.5-2.1-3.7-3c-1.2-0.9-2.3-1.8-3.4-2.5c-2-1.4-3.4-2.1-3.4-2.1s1,1.4,2.7,3.2c0.8,0.9,1.9,2,3,3c1.1,1.1,2.3,2.2,3.6,3.2
	c1.2,1.1,2.5,2.1,3.7,3c1.2,0.9,2.3,1.8,3.4,2.5c2,1.4,3.4,2.1,3.4,2.1s-1-1.4-2.7-3.2c-0.8-0.9-1.9-2-3-3
	C305.8,86.7,304.6,85.6,303.4,84.5z M291,94.9c-1-0.9-2-1.7-3-2.4c-1-0.7-1.9-1.4-2.7-1.9c-1.6-1.1-2.8-1.6-2.8-1.6s0.8,1.2,2.2,2.7
	c0.7,0.8,1.5,1.6,2.4,2.5c0.9,0.9,1.9,1.8,2.9,2.6c1,0.9,2,1.7,3,2.4c1,0.7,1.9,1.4,2.7,1.9c1.6,1.1,2.8,1.6,2.8,1.6
	s-0.8-1.2-2.2-2.7c-0.7-0.8-1.5-1.6-2.4-2.5C293,96.7,292,95.8,291,94.9z M292.3,86.3c0,0-1-1.4-2.7-3.3c-0.9-1-1.9-2-3-3.1
	c-0.6-0.5-1.1-1.1-1.7-1.7c-0.6-0.6-1.2-1.1-1.8-1.7c-0.6-0.5-1.3-1.1-1.9-1.6c-0.6-0.5-1.2-1-1.8-1.5c-1.2-1-2.4-1.9-3.4-2.6
	c-2-1.5-3.5-2.3-3.5-2.3s1,1.4,2.8,3.3c0.9,1,1.9,2,3,3.2c0.6,0.5,1.1,1.1,1.7,1.7c0.6,0.6,1.2,1.1,1.8,1.7c0.6,0.5,1.3,1.1,1.9,1.6
	c0.6,0.6,1.2,1,1.8,1.5c1.2,1,2.4,1.9,3.4,2.6C290.9,85.5,292.3,86.3,292.3,86.3z M269.9,80.3c-1.1-1.1-2.4-2.5-3.9-3.9
	c-1.4-1.4-3-2.9-4.5-4.3c-1.6-1.4-3.1-2.9-4.6-4.2c-1.5-1.3-2.9-2.5-4.1-3.6c-1.2-1-2.2-1.9-2.9-2.5c-0.7-0.6-1.1-0.9-1.1-0.9
	s0.4,0.4,1,1.1c0.7,0.7,1.6,1.7,2.7,2.8c1.1,1.1,2.4,2.5,3.9,3.9c1.4,1.4,3,2.9,4.5,4.3c1.6,1.4,3.1,2.9,4.6,4.2
	c1.5,1.3,2.9,2.5,4.1,3.6c1.2,1.1,2.2,1.9,2.9,2.5c0.7,0.6,1.1,0.9,1.1,0.9s-0.4-0.4-1-1.1C271.9,82.4,271,81.4,269.9,80.3z
	 M248.2,75.1c-0.7-0.7-1.5-1.4-2.2-2.1c-0.7-0.7-1.5-1.4-2.2-2c-1.4-1.3-2.8-2.5-4-3.4c-2.4-1.9-4-3.1-4-3.1s1.2,1.7,3.3,4.1
	c1,1.2,2.2,2.5,3.6,4c0.7,0.7,1.3,1.4,2.1,2.2c0.7,0.7,1.4,1.4,2.2,2.2c0.7,0.7,1.5,1.4,2.2,2.1c0.7,0.7,1.5,1.4,2.2,2
	c1.4,1.3,2.8,2.5,4,3.4c2.4,1.9,4,3.1,4,3.1s-1.2-1.7-3.3-4.1c-1-1.2-2.2-2.5-3.6-4c-0.7-0.7-1.3-1.4-2.1-2.2
	C249.7,76.6,249,75.8,248.2,75.1z M234.7,76.3c-0.6-0.6-1.3-1.2-1.9-1.7c-1.2-1.1-2.4-2.1-3.4-3c-2-1.7-3.5-2.7-3.5-2.7
	s1,1.6,2.7,3.6c0.8,1.1,1.9,2.3,3,3.5c0.6,0.6,1.1,1.3,1.7,1.9c0.6,0.6,1.2,1.3,1.8,1.9c0.6,0.6,1.3,1.2,1.9,1.9
	c0.6,0.6,1.3,1.2,1.9,1.7c1.2,1.1,2.4,2.1,3.4,3c2,1.7,3.5,2.6,3.5,2.6s-1-1.6-2.7-3.6c-0.8-1.1-1.9-2.3-3-3.5
	c-0.6-0.6-1.1-1.3-1.7-1.9c-0.6-0.6-1.2-1.3-1.8-1.9C235.9,77.5,235.3,76.9,234.7,76.3z M224.5,80.2c-1.1-1-2.2-1.8-3.1-2.5
	c-1.9-1.4-3.2-2.2-3.2-2.2s0.9,1.4,2.5,3.2c0.8,0.9,1.7,2,2.7,3.1c1,1.1,2.1,2.2,3.3,3.3c1.1,1.1,2.3,2.2,3.4,3.1
	c1.1,1,2.2,1.8,3.1,2.5c1.9,1.4,3.2,2.2,3.2,2.2s-0.9-1.4-2.5-3.2c-0.8-0.9-1.7-2-2.7-3.1c-1-1.1-2.1-2.2-3.3-3.3
	C226.8,82.2,225.6,81.1,224.5,80.2z M325.7,428.4l-0.3,0.7c0.2-0.3,0.3-0.6,0.5-1L325.7,428.4z M398.9,203.1
	c5.1,14.9,11.9,46.4,5.5,63.5c-2.3-1.9-8.5-5.4-8.5-5.4s11,64.2,15.5,67.6c0,0.1-0.1,0.1-0.2,0.2c8.4,2.8,15.2,7.6,15.5,14.7
	c0,0.2,0,0.5,0,0.8c0.9-3,1-6.3-1.2-8.9c-3.9-4.5-11.4-10.5-11.5-10.5l-0.9-0.7l-0.3-1.2c0-0.1-3-11.6-5.7-23.2
	c-5.9-25.4-4.9-26.5-3.3-28.1l0.4-0.4l4.7-2.3C411.9,254.7,412.3,225.2,398.9,203.1z M408.6,187.5c-0.1-1.8-0.2-4-0.6-6.5
	c-4.2-10.6-18.6-20.7-16.6-13.5c1.5,5.6,8.7,13.9,12.4,17.9C405.7,186,407.3,186.7,408.6,187.5z M368.1,105.5
	c-6.6-7.6-14.4-15.6-19.9-18l-1-0.4c-0.5,0.8-0.7,1.4-0.7,1.4S360.2,98.2,368.1,105.5z M343.8,73.7c-9.2-4.6-22.7-8.8-41.1-8.8
	c-2.3,0-4.7,0.1-7.1,0.2l-2.5,0.1l-0.6-2.8c-0.2-1.2-0.4-2.5-0.5-3.6c-4.8-2.5-20.3-10-37.4-10c-13,0-24.2,4.2-33.2,12.6l-1.5,1.4
	c1.7,0.1,3.8-1.1,6.8-4c15-14.5,63.7,1.2,63.7,1.2c-1.8,5.2,4,6.9,4,6.9S325.3,68,343.8,73.7z M216.8,60.1l-0.1-0.8
	c-0.6-4.1-1.5-8.2-2.2-11c-10.8,4.5-49.3,22.5-58.7,54c-1.6,5.3-2.2,10.7-2,16.2c1.2-7.3,3.8-15.3,8.6-23.8
	c16-28.4,42.3-40.8,52.1-43.5C215.1,55,215.8,58,216.8,60.1z M44.3,410.7c-0.1,1.6-0.6,3-1.2,4.3c0.8,0.1,1.7,0.1,2.5,0.1
	C44.9,413.8,44.4,412.3,44.3,410.7z M322,575.6l14.3-24L295,532.4c-1.7,0.9-3.3,1.8-5,2.7l-2.4,40.4H322z M365.2,575.6l1.2,0
	c2.1-31.7,12.2-78,28-128.4c12.6-40.2,26.3-74.4,34.2-86c-2-1.1-3.9-2.3-5.8-3.3C407.9,397,356,497.7,349.2,510.9l-0.5,1l-1,0.2
	c-0.2,0-18.6,3.1-47.6,17.8l42.4,19.7l-15.6,26.1H365.2z M527,430.6c-1.2-6.4-2.5-8.3-3.2-8.8c-8.6-6.8-45.6-30.1-72.2-46.6
	c-13.3,28.9-32,139.6-27.2,198.3l102.1-3.6c0.1-1.8,0.3-4.5,0.5-7.7V430.6z M527,41.4c-1.6-0.6-2.8-2.3-2.8-4.4
	c0-0.4,0.1-0.8,0.2-1.2h-11.6c0.1,0.4,0.2,0.8,0.2,1.2c0,2.6-1.8,4.7-4,4.7c-2.2,0-4-2.1-4-4.7c0-0.4,0.1-0.8,0.2-1.2h-12
	c0.1,0.4,0.2,0.8,0.2,1.2c0,2.6-1.8,4.7-4,4.7c-2.2,0-4-2.1-4-4.7c0-0.4,0.1-0.8,0.2-1.2h-12c0.1,0.4,0.2,0.8,0.2,1.2
	c0,2.6-1.8,4.7-4,4.7c-2.2,0-4-2.1-4-4.7c0-0.4,0.1-0.8,0.2-1.2h-12c0.1,0.4,0.2,0.8,0.2,1.2c0,2.6-1.8,4.7-4,4.7
	c-2.2,0-4-2.1-4-4.7c0-0.4,0.1-0.8,0.2-1.2h-12c0.1,0.4,0.2,0.8,0.2,1.2c0,2.6-1.8,4.7-4,4.7c-2.2,0-4-2.1-4-4.7
	c0-0.4,0.1-0.8,0.2-1.2h-12c0.1,0.4,0.2,0.8,0.2,1.2c0,2.6-1.8,4.7-4,4.7c-2.2,0-4-2.1-4-4.7c0-0.4,0.1-0.8,0.2-1.2h-12
	c0.1,0.4,0.2,0.8,0.2,1.2c0,2.6-1.8,4.7-4,4.7c-2.2,0-4-2.1-4-4.7c0-0.4,0.1-0.8,0.2-1.2h-12c0.1,0.4,0.2,0.8,0.2,1.2
	c0,2.6-1.8,4.7-4,4.7c-2.2,0-4-2.1-4-4.7c0-0.4,0.1-0.8,0.2-1.2h-12c0.1,0.4,0.2,0.8,0.2,1.2c0,2.6-1.8,4.7-4,4.7
	c-2.2,0-4-2.1-4-4.7c0-0.4,0.1-0.8,0.2-1.2h-12c0.1,0.4,0.2,0.8,0.2,1.2c0,2.6-1.8,4.7-4,4.7c-2.2,0-4-2.1-4-4.7
	c0-0.4,0.1-0.8,0.2-1.2h-12c0.1,0.4,0.2,0.8,0.2,1.2c0,2.6-1.8,4.7-4,4.7c-2.2,0-4-2.1-4-4.7c0-0.4,0.1-0.8,0.2-1.2h-12
	c0.1,0.4,0.2,0.8,0.2,1.2c0,2.6-1.8,4.7-4,4.7c-2.2,0-4-2.1-4-4.7c0-0.4,0.1-0.8,0.2-1.2h-12c0.1,0.4,0.2,0.8,0.2,1.2
	c0,2.6-1.8,4.7-4,4.7c-2.2,0-4-2.1-4-4.7c0-0.4,0.1-0.8,0.2-1.2h-12c0.1,0.4,0.2,0.8,0.2,1.2c0,2.6-1.8,4.7-4,4.7
	c-2.2,0-4-2.1-4-4.7c0-0.4,0.1-0.8,0.2-1.2h-12c0.1,0.4,0.2,0.8,0.2,1.2c0,2.6-1.8,4.7-4,4.7c-2.2,0-4-2.1-4-4.7
	c0-0.4,0.1-0.8,0.2-1.2h-12c0.1,0.4,0.2,0.8,0.2,1.2c0,1.8-0.9,3.3-2.2,4.1c0.7-0.3,1.1-0.4,1.3-0.5l2.8-1l0.9,3.2
	c0.1,0.2,1.3,4.6,2.4,10c9.3-7.2,20.4-10.8,33-10.8c22.1,0,40.9,11.1,41.7,11.6l1.6,1l0,2.1c0,0.3,0,0.9,0.1,1.5
	c1.6-0.1,3.2-0.1,4.7-0.1c19.7,0,34.1,4.6,44,9.5c0.1-2.5,1.8-4.5,4-4.5c2.2,0,4,2.1,4,4.7c0,1.5-0.6,2.7-1.5,3.6
	c6.8,4.4,10.1,8.2,10.4,8.6l2.5,3l-3,2.3c-0.4,0.3-1.6,1.1-4.1,1.7c2.7,2.3,5.4,4.9,8,7.7c0.7-1.4,2-2.3,3.5-2.3c2.2,0,4,2.1,4,4.7
	c0,1.7-0.8,3.1-1.9,3.9c6,7,10.4,13.1,10.8,13.6l4.5,6.3c0.7-0.4,1.4-0.7,2.3-0.7c2.5,0,4.6,2.4,4.6,5.3c0,1.3-0.4,2.5-1.1,3.4
	l3.5,4.9l-4.7-3.7c-0.7,0.5-1.5,0.7-2.3,0.7c-0.2,0-0.3,0-0.5-0.1c6.8,7.3,11.7,14.6,15.3,21.6c0.6-2.5,2.6-4.3,4.9-4.3
	c2.8,0,5.1,2.6,5.1,5.9c0,3.3-2.3,5.9-5.1,5.9c-0.6,0-1.1-0.1-1.6-0.3c2.7,6.5,4.2,12.6,5.2,17.8c1.3,1.2,2.1,3,2.1,5.1
	c0,1.4-0.4,2.7-1.1,3.8c0.3,5.3-0.1,8.6-0.2,9l-1.2,9.2l-4.3-7.9c-0.1-0.1-2.6-4.1-10.3-4.6c3.2,4,5.9,8.2,8.1,12.7
	c0.9-0.7,2-1,3.2-1c3.4,0,6.2,3.2,6.2,7.2c0,3.2-1.8,5.8-4.2,6.8c1.8,5.8,3.1,11.8,3.8,17.7c0.6,1.2,0.9,2.5,0.9,4
	c0,0.8-0.1,1.6-0.3,2.3c0.4,5.7,0.4,11.1,0.1,16.1c14.4-1.7,31.9-5.9,48.6-12.4c-1.6-1.4-2.6-3.6-2.6-6.1c0-4.3,3-7.8,6.7-7.8
	c3.7,0,6.7,3.5,6.7,7.8c0,0.5,0,1.1-0.1,1.6c2.2-1,4.4-2.1,6.6-3.2c0.7-3.5,3.3-6.1,6.6-6.1c1,0,2,0.3,2.9,0.8
	c6.6-4.1,12.6-8.6,17.5-13.5c0.3-0.3,0.7-0.7,1-1c-0.5,0.2-1,0.3-1.6,0.3c-3.4,0-6.2-3.2-6.2-7.2c0-3.9,2.8-7.2,6.2-7.2
	c3.4,0,6.2,3.2,6.2,7.2c0,0.8-0.1,1.5-0.3,2.2c4.8-5.6,8.8-11.9,12.3-18.6v-5.7c-2.5-0.6-4.4-3.2-4.4-6.4c0-3.1,1.9-5.7,4.4-6.4
	v-16.3c-2.2-0.6-3.9-2.9-3.9-5.7c0-2.8,1.7-5.1,3.9-5.7v-17.6c-1.9-0.6-3.4-2.6-3.4-5.1c0-2.4,1.4-4.5,3.4-5.1v-18.9
	c-1.6-0.6-2.8-2.3-2.8-4.4c0-2.1,1.2-3.8,2.8-4.4V72.1c-1.6-0.6-2.8-2.3-2.8-4.4s1.2-3.8,2.8-4.4V41.4z"/>
<path d="M517.3,414.3c-0.5-0.8-1.1-1.5-1.8-2.1c-0.3-0.3-0.7-0.6-1-0.9c-0.3-0.3-0.6-0.5-1-0.8c-1.4-1-2.9-1.8-4.3-2.6
	c-1.5-0.8-3-1.4-4.5-2.1c-0.1-0.1-0.3-0.1-0.4-0.2l5.6-12l1-2.1l-2.1,1l-18.9,8.9l-2.8,1.3l3,0.8c3.1,0.8,6.2,1.8,9.1,2.9
	c1,0.4,1.9,0.7,2.9,1.1l-5.4,12.8c-2.6-1.3-5.3-2.6-8.1-3.6c-1.6-0.6-3.2-1-4.9-1.1c-0.8-0.1-1.7,0-2.5,0.2
	c-0.8,0.2-1.6,0.7-2.2,1.3l0.2,0.2c1.3-0.9,2.9-1.1,4.4-0.8c1.5,0.3,3,0.9,4.4,1.6c2.6,1.3,5.2,2.8,7.8,4.3l-3.7,8.7l0.3,0.1l4-8.5
	c0,0,0.1,0.1,0.1,0.1c1.4,0.8,2.9,1.6,4.4,2.3c1.5,0.7,3.1,1.4,4.7,1.8c0.4,0.1,0.8,0.2,1.3,0.3l0.6,0.1c0.2,0,0.5,0.1,0.7,0.1
	c0.9,0.1,1.8,0.1,2.8,0c1.8-0.3,3.7-1,5.2-2.3c1.5-1.3,2.6-3.2,2.7-5.2C519,417.8,518.3,415.8,517.3,414.3z M500,404.1
	c-1.6-0.5-3.1-1-4.7-1.5c-0.6-0.2-1.2-0.3-1.9-0.5l13.9-7l-4.3,10.1C502,404.8,501,404.5,500,404.1z M514,422.7
	c-1,0.9-2.2,1.4-3.6,1.7c-0.7,0.1-1.4,0.1-2.1,0.1l-0.5,0l-0.6-0.1c-0.3-0.1-0.7-0.1-1.1-0.2c-2.9-0.7-5.9-2-8.8-3.4
	c-0.1,0-0.2-0.1-0.2-0.1l5.9-12.6c0.2,0.1,0.3,0.1,0.5,0.2c1.4,0.7,2.9,1.3,4.2,2.1c1.4,0.7,2.7,1.6,3.9,2.5
	c0.2,0.2,0.6,0.5,0.9,0.7c0.3,0.2,0.5,0.4,0.8,0.7c0.5,0.5,0.9,1.1,1.3,1.6c0.7,1.2,1.1,2.4,1,3.6C515.6,420.8,515,421.9,514,422.7z
	"/>
</svg>
